<svg width="100" height="100" xmlns="http://www.w3.org/2000/svg">
 <g>
  <g stroke="null">
   <path stroke="null" id="svg_32" stroke-width="0.90189" fill="#804b64" d="m94.29892,26.49067c-0.37714,-0.00498 -0.72879,-0.00387 -0.78168,0.00221c-0.05267,0.00581 -0.25015,0.02384 -0.43885,0.03993c-0.18843,0.01609 -0.60205,0.06656 -0.91886,0.11205c-0.3168,0.04574 -0.93998,0.15725 -1.3851,0.24767c-0.44488,0.09041 -1.17939,0.25764 -1.63195,0.37135c-0.45256,0.11371 -1.00167,0.25682 -1.22057,0.31811c-0.2186,0.06129 -0.57049,0.18332 -0.78174,0.27096c-0.2112,0.08792 -0.7726,0.35638 -1.24798,0.5966c-0.47506,0.24045 -1.22194,0.63233 -1.65941,0.87081c-0.43748,0.23879 -1.04226,0.57188 -1.34397,0.74051c-0.30171,0.1689 -1.01759,0.57464 -1.59082,0.90223c-0.57323,0.32754 -1.5667,0.90189 -2.20797,1.27632c-0.641,0.37441 -1.8322,1.07633 -2.64681,1.55972c-0.81461,0.48341 -1.9131,1.13817 -2.44109,1.45491c-0.52799,0.317 -1.5708,0.94515 -2.31769,1.39584c-0.74657,0.45068 -2.20934,1.33926 -3.25023,1.97463c-1.04089,0.63509 -2.30588,1.4089 -2.81139,1.71923c-0.5055,0.31034 -1.73976,1.07163 -2.7428,1.69207s-1.99788,1.23578 -2.21043,1.36786l-0.38646,0.2399l-0.13467,-0.03993c-0.07405,-0.0219 -0.69613,-0.18942 -1.38264,-0.37218c-0.68623,-0.18304 -1.72302,-0.45761 -2.30397,-0.61015c-0.58061,-0.15282 -1.75951,-0.46011 -2.61941,-0.68338c-0.8599,-0.22298 -2.79137,-0.71556 -4.29249,-1.09442c-1.50084,-0.37885 -3.09254,-0.77817 -3.53685,-0.88752c-0.44433,-0.10927 -1.16653,-0.28594 -1.60455,-0.39243c-0.43757,-0.10725 -1.44986,-0.35017 -2.24949,-0.54121c-0.79968,-0.19054 -2.02162,-0.47786 -2.71518,-0.63797c-0.69411,-0.16062 -1.84795,-0.4225 -2.56476,-0.58261c-0.71632,-0.16012 -1.74091,-0.38459 -2.27662,-0.49882c-0.53573,-0.11423 -1.39954,-0.2953 -1.91999,-0.40154c-0.52045,-0.10675 -1.43406,-0.28732 -2.02949,-0.40204c-0.59571,-0.11482 -1.55248,-0.28843 -2.12571,-0.38578c-0.57323,-0.09762 -1.34452,-0.22159 -1.71427,-0.27567c-0.36946,-0.05381 -0.93724,-0.12896 -1.26171,-0.1664c-0.3242,-0.03744 -0.76254,-0.08459 -0.97372,-0.10456c-0.2175,-0.02024 -0.72277,-0.03523 -1.16571,-0.0344l-0.78168,0.00166l-0.21696,0.06074c-0.11959,0.03357 -0.26935,0.09152 -0.33298,0.12951c-0.06363,0.03772 -0.17225,0.13202 -0.2411,0.20939c-0.06885,0.07766 -0.15552,0.20579 -0.19255,0.28511c-0.03703,0.07904 -0.08695,0.24018 -0.11108,0.35777c-0.02385,0.11759 -0.04359,0.31978 -0.04359,0.44957c0,0.12952 0.014,0.33059 0.03101,0.4468l0.03101,0.21078l8.46115,9.28221c4.65377,5.10486 8.50217,9.3259 8.55304,9.379l0.09189,0.09735l-13.70554,8.52782l-13.70499,8.52837l10.2771,0.00691l10.2771,0.00691l29.79479,-18.33545l29.79479,-18.33545l0.68569,-0.69726c0.37714,-0.38356 0.87986,-0.91301 1.11714,-1.17677c0.23752,-0.26347 0.60151,-0.67978 0.80914,-0.92496c0.20763,-0.24517 0.54171,-0.6534 0.74219,-0.90743c0.2005,-0.25377 0.52331,-0.68614 0.71697,-0.96069c0.19392,-0.27457 0.45695,-0.66756 0.58477,-0.87363c0.12782,-0.20606 0.30966,-0.51782 0.40374,-0.69305c0.09436,-0.17528 0.22739,-0.44375 0.29568,-0.59627c0.0683,-0.15281 0.17171,-0.41878 0.22958,-0.59157c0.05788,-0.17251 0.1259,-0.42211 0.15086,-0.55468c0.02494,-0.13229 0.04606,-0.36554 0.0466,-0.51807c0.00109,-0.15254 -0.0151,-0.34612 -0.03512,-0.42988c-0.02002,-0.08403 -0.06583,-0.22049 -0.10203,-0.30369c-0.03588,-0.0832 -0.11602,-0.21771 -0.17801,-0.2987c-0.06171,-0.08098 -0.18596,-0.20329 -0.2762,-0.27179c-0.08997,-0.0685 -0.25426,-0.16807 -0.36507,-0.22104c-0.11109,-0.05326 -0.30637,-0.12758 -0.43419,-0.16501c-0.12781,-0.03744 -0.35985,-0.08847 -0.51566,-0.11371c-0.19145,-0.03081 -0.50496,-0.04823 -0.96875,-0.05409l-0.0017,0.00138zm-88.89428,36.08354c-0.1056,-0.00442 -0.35245,0.00111 -0.54856,0.01333c-0.19611,0.01195 -0.4501,0.04629 -0.56448,0.07627c-0.11437,0.02998 -0.26879,0.08293 -0.34285,0.1176c-0.07433,0.03495 -0.20516,0.13534 -0.29102,0.22326c-0.10917,0.11176 -0.19337,0.23712 -0.28059,0.41739c-0.06885,0.14172 -0.15525,0.36609 -0.19255,0.49866c-0.03703,0.13257 -0.08722,0.3758 -0.11163,0.54081c-0.02412,0.16502 -0.05049,0.46205 -0.05842,0.66031l-0.01455,0.36054l3.30952,3.20328c1.82011,1.76165 3.32402,3.20218 3.34185,3.20046c0.01783,-0.00166 2.03185,-1.42942 4.47551,-3.17336c2.44388,-1.74389 4.4486,-3.17497 4.45489,-3.18c0.00629,-0.00442 0.00492,-0.01526 -0.00273,-0.02328c-0.00766,-0.0078 -0.17938,-0.0649 -0.38153,-0.12647c-0.20214,-0.06185 -0.76855,-0.22908 -1.25892,-0.37191c-0.49014,-0.14255 -1.20602,-0.34667 -1.59082,-0.45345c-0.38454,-0.10678 -1.0357,-0.28289 -1.44686,-0.39133c-0.41114,-0.10871 -1.1207,-0.28982 -1.57715,-0.4027c-0.4564,-0.11288 -1.13825,-0.27401 -1.51539,-0.35832c-0.37713,-0.08432 -0.95721,-0.20884 -1.28911,-0.27679c-0.33188,-0.06795 -0.86258,-0.16807 -1.17939,-0.22243c-0.3168,-0.05437 -0.70221,-0.11759 -0.85607,-0.14089c-0.15414,-0.02328 -0.49563,-0.06712 -0.75898,-0.09762c-0.26331,-0.03025 -0.62481,-0.06184 -0.80334,-0.06989c-0.17856,-0.00802 -0.41087,-0.01858 -0.51645,-0.02362l-0.00039,0.00014z"/>
  </g>
 </g>

</svg>