<?xml version="1.0" encoding="utf-8"?>
<svg version="1.1" xmlns:cc="http://creativecommons.org/ns#" xmlns:dc="http://purl.org/dc/elements/1.1/" xmlns:rdf="http://www.w3.org/1999/02/22-rdf-syntax-ns#" xmlns="http://www.w3.org/2000/svg" xmlns:xlink="http://www.w3.org/1999/xlink" x="0px" y="0px" viewBox="0 0 1024 768" xml:space="preserve">
<g transform="translate(512,384) scale(1.5 1.2)">
    <path id="path" d="M152.4,-201.9C199,-175.9,239.3,-133.4,249.6,-85C260,-36.7,240.3,17.5,217.4,65.3C194.5,113.1,168.4,154.4,131.6,187.1C94.8,219.9,47.4,243.9,-3.9,249.3C-55.3,254.7,-110.5,241.4,-152.5,210.4C-194.5,179.4,-223.3,130.6,-240,78.2C-256.8,25.8,-261.5,-30.4,-242.2,-75.2C-222.8,-120,-179.3,-153.4,-134.9,-180.2C-90.5,-206.9,-45.3,-227,3.8,-232.2C52.9,-237.5,105.8,-228,152.4,-201.9Z" fill="#804b64">
	</path>
</g>

<animate xlink:href="#path" attributeType="XML" dur="20s" repeatCount="1" attributeName="d" keyTimes="0; 0.2; 0.4; 0.6; 0.8; 1" calcMode="spline" keySplines="0.9 0.1 0.1 0.9;0.9 0.1 0.1 0.9;0.9 0.1 0.1 0.9;0.9 0.1 0.1 0.9;0.9 0.1 0.1 0.9" values="M120.2,-176.8C149.6,-144.2,162.8,-100.7,175.5,-57.9C188.3,-15,200.7,27.1,195.6,70.1C190.6,113,168.2,156.8,132.7,178C97.2,199.1,48.6,197.5,4.9,190.8C-38.8,184.1,-77.6,172.1,-115.3,151.7C-153,131.3,-189.7,102.4,-205.6,64.2C-221.6,26.1,-216.8,-21.4,-204,-67.9C-191.2,-114.4,-170.2,-160,-134.9,-190.6C-99.5,-221.3,-49.8,-237.2,-2.2,-234.2C45.5,-231.2,90.9,-209.5,120.2,-176.8Z; M152.4,-201.9C199,-175.9,239.3,-133.4,249.6,-85C260,-36.7,240.3,17.5,217.4,65.3C194.5,113.1,168.4,154.4,131.6,187.1C94.8,219.9,47.4,243.9,-3.9,249.3C-55.3,254.7,-110.5,241.4,-152.5,210.4C-194.5,179.4,-223.3,130.6,-240,78.2C-256.8,25.8,-261.5,-30.4,-242.2,-75.2C-222.8,-120,-179.3,-153.4,-134.9,-180.2C-90.5,-206.9,-45.3,-227,3.8,-232.2C52.9,-237.5,105.8,-228,152.4,-201.9Z; M101.9,-120.6C144.2,-109.5,199.1,-96,223.6,-62.7C248.2,-29.4,242.5,23.8,220.4,65.3C198.2,106.8,159.7,136.8,120.2,173.1C80.7,209.4,40.4,252.2,-4.7,258.7C-49.8,265.2,-99.5,235.3,-119,192.5C-138.5,149.7,-127.8,93.8,-144.4,46.1C-161,-1.6,-205.1,-41.3,-214.9,-88C-224.7,-134.6,-200.2,-188.3,-158.7,-199.6C-117.2,-210.9,-58.6,-180,-14.4,-160.1C29.8,-140.3,59.6,-131.6,101.9,-120.6Z; M113.1,-161.5C148.6,-129.9,180.8,-99.5,181.6,-66.3C182.3,-33.1,151.5,3.1,132.4,37.1C113.2,71.2,105.7,103.2,85.6,142.9C65.4,182.7,32.7,230.4,-3.9,235.8C-40.6,241.2,-81.1,204.3,-114.7,168.9C-148.3,133.5,-175,99.5,-198.1,57.5C-221.3,15.5,-240.9,-34.6,-221,-64.4C-201.2,-94.2,-141.7,-103.7,-98.3,-132.8C-54.9,-161.8,-27.4,-210.4,5.7,-218.2C38.8,-226.1,77.6,-193.1,113.1,-161.5Z; M102,-143.7C138.9,-113.5,180.3,-92.8,196.8,-59.7C213.4,-26.7,205.1,18.6,190.6,61.5C176.1,104.4,155.4,144.8,122.5,162.7C89.7,180.5,44.9,175.8,-1.2,177.4C-47.2,179,-94.4,187,-113.8,164.8C-133.1,142.5,-124.6,90.1,-143.6,43.8C-162.6,-2.6,-209.2,-42.9,-216.4,-85.7C-223.7,-128.5,-191.5,-173.9,-148.8,-202.2C-106.2,-230.5,-53.1,-241.7,-10.3,-227.6C32.5,-213.4,65,-173.9,102,-143.7Z; M120.2,-176.8C149.6,-144.2,162.8,-100.7,175.5,-57.9C188.3,-15,200.7,27.1,195.6,70.1C190.6,113,168.2,156.8,132.7,178C97.2,199.1,48.6,197.5,4.9,190.8C-38.8,184.1,-77.6,172.1,-115.3,151.7C-153,131.3,-189.7,102.4,-205.6,64.2C-221.6,26.1,-216.8,-21.4,-204,-67.9C-191.2,-114.4,-170.2,-160,-134.9,-190.6C-99.5,-221.3,-49.8,-237.2,-2.2,-234.2C45.5,-231.2,90.9,-209.5,120.2,-176.8Z" fill="freeze"   />
<path d="m321.52 271.75v5.63h30.85v80.05h6.24v-80.05h30.85v-5.63h-67.94zm83.3 0v5.63h30.72c9.06 0 16.03 2.08 20.93 6.12 4.77 4.04 7.22 9.79 7.22 17.13 0 7.47-2.45 13.22-7.22 17.26-4.9 4.04-11.87 6-20.93 6h-30.72v33.54h6.24v-28.03h24.48c2.45 0 5.26-0.12 8.32-0.61l20.44 28.64h7.1l-21.42-29.99c6.37-1.84 11.39-5.02 14.81-9.67 3.43-4.65 5.27-10.28 5.27-17.14 0-8.93-3.06-16.03-9.18-21.17s-14.57-7.71-25.34-7.71h-30.72zm113.3 0l-39.41 85.68h6.73l35.74-78.83 35.87 78.83h6.73l-39.41-85.68h-6.25zm61.21 0v85.68h6.12v-73.07l35.87 61.68h3.06l35.86-61.93 0.12 73.32h6.12l-0.12-85.68h-5.14l-38.31 66.22-38.31-66.22h-5.27zm116.9 0v85.68h6.25v-85.68h-6.25zm-466.16 94.25v5.63h30.85v80.05h6.24v-80.05h30.84v-5.63h-67.93zm83.3 0v5.63h30.72c9.06 0 16.03 2.08 20.93 6.12 4.77 4.04 7.22 9.79 7.22 17.13 0 7.47-2.45 13.22-7.22 17.26-4.9 4.04-11.87 6-20.93 6h-30.72v33.54h6.24v-28.03h24.48c2.45 0 5.26-0.13 8.32-0.61l20.44 28.64h7.1l-21.42-29.99c6.37-1.84 11.38-5.02 14.81-9.67s5.27-10.28 5.27-17.14c0-8.93-3.06-16.03-9.18-21.17s-14.57-7.71-25.34-7.71h-30.72zm113.3 0l-39.41 85.68h6.73l35.74-78.83 35.87 78.83h6.73l-39.42-85.68h-6.24zm229.69 0v5.63h55.45v-5.63h-55.45zm82 0v85.68h55.57v-5.64h-49.33v-80.04h-6.24zm-102.08 1.6c-0.69-0.01-1.33 0-1.43 0.01s-0.46 0.04-0.8 0.07c-0.35 0.03-1.1 0.12-1.68 0.2-0.58 0.09-1.72 0.29-2.54 0.45-0.81 0.16-2.15 0.47-2.98 0.67-0.83 0.21-1.83 0.47-2.23 0.58s-1.04 0.33-1.43 0.49-1.41 0.64-2.28 1.07c-0.87 0.44-2.24 1.15-3.03 1.58-0.8 0.43-1.91 1.03-2.46 1.34-0.55 0.3-1.86 1.04-2.91 1.63s-2.86 1.63-4.04 2.31c-1.17 0.68-3.35 1.94-4.84 2.82-1.49 0.87-3.49 2.06-4.46 2.63s-2.87 1.71-4.24 2.52c-1.36 0.82-4.04 2.42-5.94 3.57s-4.21 2.55-5.14 3.11c-0.92 0.56-3.18 1.94-5.01 3.06-1.84 1.12-3.66 2.23-4.05 2.47l-0.7 0.44-0.25-0.08c-0.13-0.03-1.27-0.34-2.53-0.67-1.25-0.33-3.14-0.82-4.21-1.1-1.06-0.28-3.21-0.83-4.79-1.24-1.57-0.4-5.1-1.29-7.84-1.98-2.75-0.68-5.66-1.4-6.47-1.6s-2.13-0.52-2.93-0.71-2.65-0.63-4.12-0.98c-1.46-0.34-3.69-0.86-4.96-1.15s-3.38-0.77-4.69-1.06c-1.31-0.28-3.18-0.69-4.16-0.9-0.98-0.2-2.56-0.53-3.51-0.72-0.95-0.2-2.62-0.52-3.71-0.73s-2.84-0.52-3.89-0.7c-1.05-0.17-2.46-0.4-3.13-0.5-0.68-0.09-1.72-0.23-2.31-0.3-0.59-0.06-1.39-0.15-1.78-0.19-0.4-0.03-1.32-0.06-2.13-0.06l-1.43 0.01-0.4 0.1c-0.22 0.07-0.49 0.17-0.61 0.24-0.11 0.07-0.31 0.24-0.44 0.38-0.12 0.14-0.28 0.37-0.35 0.51-0.06 0.15-0.16 0.44-0.2 0.65s-0.08 0.58-0.08 0.81c0 0.24 0.03 0.6 0.06 0.81l0.05 0.38 15.47 16.78c8.51 9.23 15.55 16.87 15.64 16.96l0.17 0.18-25.06 15.42-25.06 15.42 18.79 0.01 18.79 0.01 54.47-33.15 54.47-33.15 1.26-1.26c0.69-0.69 1.61-1.65 2.04-2.13 0.44-0.47 1.1-1.23 1.48-1.67 0.38-0.45 0.99-1.18 1.36-1.64 0.36-0.46 0.95-1.24 1.31-1.74 0.35-0.5 0.83-1.21 1.07-1.58 0.23-0.37 0.56-0.93 0.73-1.25 0.18-0.32 0.42-0.8 0.55-1.08 0.12-0.28 0.31-0.76 0.42-1.07 0.1-0.31 0.23-0.76 0.27-1 0.05-0.24 0.09-0.66 0.09-0.94 0-0.27-0.03-0.62-0.07-0.78-0.03-0.15-0.12-0.39-0.18-0.55-0.07-0.15-0.22-0.39-0.33-0.54-0.11-0.14-0.34-0.36-0.5-0.49-0.17-0.12-0.47-0.3-0.67-0.4-0.2-0.09-0.56-0.23-0.8-0.3-0.23-0.06-0.65-0.16-0.94-0.2-0.35-0.06-0.92-0.09-1.77-0.1zm20.08 37.81v5.51h55.45v-5.51h-55.45zm-182.6 27.44c-0.2-0.01-0.65 0-1.01 0.02-0.35 0.02-0.82 0.08-1.03 0.14-0.21 0.05-0.49 0.15-0.62 0.21-0.14 0.06-0.38 0.24-0.54 0.4-0.2 0.21-0.35 0.43-0.51 0.76-0.13 0.26-0.28 0.66-0.35 0.9s-0.16 0.68-0.21 0.98c-0.04 0.3-0.09 0.83-0.1 1.19l-0.03 0.65 6.05 5.8c3.33 3.18 6.08 5.78 6.11 5.78s3.72-2.58 8.18-5.73c4.47-3.16 8.14-5.75 8.15-5.75 0.01-0.01 0.01-0.03-0.01-0.05-0.01-0.01-0.33-0.11-0.7-0.23-0.37-0.11-1.4-0.41-2.3-0.67-0.89-0.26-2.2-0.63-2.9-0.82-0.71-0.19-1.9-0.51-2.65-0.71-0.75-0.19-2.05-0.52-2.88-0.72-0.84-0.21-2.08-0.5-2.77-0.65s-1.75-0.38-2.36-0.5c-0.61-0.13-1.58-0.31-2.16-0.4-0.58-0.1-1.28-0.22-1.56-0.26s-0.91-0.12-1.39-0.18c-0.48-0.05-1.14-0.11-1.47-0.12-0.33-0.02-0.75-0.04-0.94-0.04zm182.6 13.19v5.64h55.45v-5.64h-55.45zm-391.67 17.64c-0.48 0-0.86 0.12-1.12 0.38s-0.38 0.58-0.38 0.99c0 0.32 0.06 0.67 0.25 1.12l9.38 21.44c0.32 0.71 0.8 1.06 1.5 1.06 0.71 0 1.22-0.35 1.51-1.06l9.47-21.73c0.13-0.28 0.19-0.57 0.19-0.83 0-0.38-0.16-0.73-0.42-0.99-0.25-0.26-0.64-0.38-1.08-0.38-0.39 0-0.71 0.09-0.93 0.22-0.26 0.13-0.45 0.38-0.58 0.77l-8.19 19.33-8.06-19.33c-0.29-0.64-0.8-0.99-1.54-0.99zm202.5 0c-0.45 0-0.83 0.16-1.12 0.44-0.29 0.29-0.42 0.64-0.42 1.09s0.13 0.83 0.42 1.12 0.67 0.42 1.12 0.42h6.91v20.25c0 0.48 0.16 0.87 0.48 1.19s0.7 0.48 1.18 0.48c0.45 0 0.87-0.16 1.19-0.48s0.48-0.71 0.48-1.19v-20.25h6.88c0.45 0 0.8-0.13 1.09-0.42 0.28-0.29 0.44-0.67 0.44-1.12s-0.16-0.8-0.44-1.09c-0.29-0.28-0.64-0.44-1.09-0.44h-17.12zm187.72 0c-0.45 0-0.8 0.16-1.12 0.48s-0.48 0.67-0.48 1.12v21.82c0 0.45 0.16 0.83 0.48 1.12 0.32 0.32 0.67 0.48 1.12 0.48s0.83-0.16 1.12-0.48c0.32-0.29 0.48-0.67 0.48-1.12v-20.22h4.64c1.25 0 2.34 0.44 3.23 1.34 0.9 0.9 1.35 1.95 1.35 3.23 0 1.12-0.39 2.11-1.09 2.95-0.71 0.83-1.6 1.34-2.66 1.53l-0.57 0.07c-0.61 0.06-1.06 0.38-1.28 0.92-0.29 0.55-0.23 1.09 0.13 1.57l6.62 9.54c0.29 0.45 0.74 0.7 1.31 0.7 0.32 0 0.61-0.09 0.9-0.29 0.35-0.25 0.57-0.6 0.67-1.05 0.06-0.42 0-0.83-0.26-1.19l-5.28-7.61c1.12-0.48 2.05-1.19 2.85-2.11 1.25-1.44 1.86-3.14 1.86-5.03 0-2.14-0.77-3.97-2.28-5.5-1.53-1.51-3.36-2.27-5.5-2.27h-6.24zm85.6 0c-0.48 0-0.86 0.16-1.15 0.44-0.32 0.32-0.45 0.71-0.45 1.16v17.47c0 1.15 0.19 2.17 0.61 3.07 0.38 0.9 0.96 1.6 1.7 2.11 0.73 0.51 1.56 0.74 2.49 0.74h0.07c0.64 0 1.15-0.13 1.56-0.45 0.39-0.29 0.61-0.67 0.61-1.15 0-0.45-0.16-0.83-0.41-1.15-0.26-0.29-0.61-0.45-1.03-0.45h-0.8c-0.48 0-0.86-0.26-1.15-0.77-0.32-0.51-0.45-1.15-0.45-1.95v-17.47c0-0.45-0.16-0.84-0.45-1.16-0.32-0.28-0.7-0.44-1.15-0.44zm18.1 0c-0.48 0-0.87 0.16-1.19 0.48s-0.45 0.73-0.45 1.18v15.78c0 0.44 0.16 0.83 0.48 1.15s0.71 0.48 1.16 0.48c0.41 0 0.79-0.16 1.11-0.48s0.52-0.71 0.52-1.15v-15.78c0-0.45-0.16-0.86-0.48-1.18s-0.71-0.48-1.15-0.48zm-459.17 0.41c-0.57 0-1.09 0.23-1.5 0.64-0.42 0.42-0.61 0.9-0.61 1.47 0 0.58 0.19 1.09 0.61 1.51 0.41 0.41 0.93 0.61 1.5 0.61 0.58 0 1.06-0.2 1.47-0.61 0.42-0.42 0.64-0.93 0.64-1.51 0-0.57-0.22-1.05-0.64-1.47-0.41-0.41-0.89-0.64-1.47-0.64zm47.83 0c-0.57 0-1.08 0.23-1.5 0.64-0.42 0.42-0.61 0.9-0.61 1.47 0 0.58 0.19 1.09 0.61 1.51 0.42 0.41 0.93 0.61 1.5 0.61 0.58 0 1.06-0.2 1.48-0.61 0.41-0.42 0.64-0.93 0.64-1.51 0-0.57-0.23-1.05-0.64-1.47-0.42-0.41-0.9-0.64-1.48-0.64zm152.05 0c-0.58 0-1.09 0.23-1.51 0.64-0.41 0.42-0.6 0.9-0.6 1.47 0 0.58 0.19 1.09 0.6 1.51 0.42 0.41 0.93 0.61 1.51 0.61 0.57 0 1.05-0.2 1.47-0.61 0.42-0.42 0.64-0.93 0.64-1.51 0-0.57-0.22-1.05-0.64-1.47-0.42-0.41-0.9-0.64-1.47-0.64zm51.55 6.5c-1.92 0-3.55 0.67-4.9 2.01-1.34 1.38-2.01 3.01-2.01 4.93v9.6c0 0.45 0.13 0.8 0.45 1.12s0.7 0.48 1.15 0.48c0.41 0 0.8-0.16 1.12-0.48s0.48-0.67 0.48-1.12v-9.6c0-1.02 0.35-1.92 1.09-2.65 0.73-0.74 1.6-1.09 2.62-1.09 1.06 0 1.92 0.35 2.66 1.09 0.73 0.73 1.09 1.63 1.09 2.65v9.6c0 0.45 0.16 0.8 0.48 1.12s0.67 0.48 1.11 0.48c0.45 0 0.84-0.16 1.13-0.48 0.32-0.32 0.47-0.67 0.47-1.12v-9.6c0-0.67 0.16-1.31 0.52-1.89 0.32-0.57 0.77-1.02 1.34-1.34 0.58-0.35 1.22-0.51 1.89-0.51 1.02 0 1.92 0.35 2.62 1.09 0.74 0.73 1.12 1.63 1.12 2.65v9.6c0 0.45 0.13 0.8 0.45 1.12s0.7 0.48 1.15 0.48c0.42 0 0.8-0.16 1.12-0.48s0.48-0.67 0.48-1.12v-9.6c0-1.92-0.7-3.55-2.04-4.93-1.35-1.34-2.98-2.01-4.9-2.01s-3.55 0.67-4.9 2.01c-0.16 0.16-0.29 0.32-0.45 0.48-0.12-0.16-0.28-0.32-0.41-0.48-1.38-1.34-3.01-2.01-4.93-2.01zm-114.31 0.16c-2.28 0-4.2 0.8-5.8 2.4s-2.39 3.52-2.39 5.76v8.22c0 0.45 0.15 0.83 0.47 1.15s0.71 0.45 1.12 0.45c0.45 0 0.84-0.13 1.16-0.45s0.44-0.7 0.44-1.15v-8.22c0-1.35 0.52-2.53 1.48-3.49 0.96-0.99 2.14-1.47 3.52-1.47 1.37 0 2.52 0.48 3.52 1.47 0.96 0.96 1.44 2.14 1.44 3.49v8.25c0 0.42 0.16 0.8 0.48 1.12s0.7 0.48 1.12 0.48c0.45 0 0.83-0.16 1.15-0.48s0.45-0.7 0.45-1.15v-8.22c0-2.24-0.8-4.16-2.37-5.76-1.6-1.6-3.55-2.4-5.79-2.4zm-113.01 0.29c-2.43 0-4.54 0.89-6.27 2.62s-2.59 3.81-2.59 6.27c0 2.47 0.86 4.55 2.59 6.27 1.73 1.73 3.84 2.6 6.27 2.6 2.21 0 4.16-0.71 5.82-2.15v0.61c0 0.45 0.13 0.8 0.45 1.09 0.29 0.32 0.64 0.45 1.09 0.45 0.41 0 0.77-0.13 1.09-0.45 0.28-0.29 0.45-0.64 0.45-1.09v-7.33c0-2.46-0.87-4.54-2.63-6.27-1.73-1.73-3.81-2.62-6.27-2.62zm46.21 0c-2.46 0-4.54 0.89-6.27 2.62s-2.6 3.81-2.6 6.27c0 2.47 0.87 4.55 2.6 6.27 1.73 1.73 3.81 2.6 6.27 2.6 2.11 0 3.97-0.64 5.6-1.99 0.35-0.25 0.51-0.61 0.58-1.02 0.03-0.45-0.07-0.8-0.36-1.15-0.25-0.32-0.61-0.52-1.02-0.55-0.42-0.03-0.8 0.07-1.12 0.35-1.09 0.87-2.3 1.28-3.68 1.28-1.6 0-2.98-0.54-4.1-1.69-1.15-1.12-1.69-2.5-1.69-4.1s0.54-2.97 1.69-4.13c1.12-1.12 2.5-1.69 4.1-1.69 1.31 0 2.49 0.41 3.55 1.21 1.02 0.8 1.7 1.83 2.05 3.08h-5.6c-0.42 0-0.8 0.16-1.09 0.44-0.29 0.29-0.45 0.68-0.45 1.09 0 0.42 0.16 0.8 0.45 1.09s0.67 0.45 1.09 0.45h7.36c0.42 0 0.77-0.16 1.06-0.45 0.32-0.29 0.48-0.67 0.48-1.09 0-2.46-0.9-4.54-2.63-6.27s-3.81-2.62-6.27-2.62zm37.75 0c-2.46 0-4.54 0.89-6.27 2.62s-2.6 3.81-2.6 6.27c0 2.47 0.87 4.55 2.6 6.27 1.73 1.73 3.81 2.6 6.27 2.6 2.11 0 3.97-0.64 5.6-1.99 0.35-0.25 0.51-0.61 0.58-1.02 0.03-0.45-0.07-0.8-0.36-1.15-0.25-0.32-0.61-0.52-1.02-0.55-0.42-0.03-0.8 0.07-1.12 0.35-1.09 0.87-2.3 1.28-3.68 1.28-1.6 0-2.98-0.54-4.1-1.69-1.15-1.12-1.69-2.5-1.69-4.1s0.54-2.97 1.69-4.13c1.12-1.12 2.5-1.69 4.1-1.69 1.31 0 2.49 0.41 3.55 1.21 1.02 0.8 1.7 1.83 2.05 3.08h-5.6c-0.42 0-0.8 0.16-1.09 0.44-0.29 0.29-0.45 0.68-0.45 1.09 0 0.42 0.16 0.8 0.45 1.09s0.67 0.45 1.09 0.45h7.36c0.42 0 0.77-0.16 1.06-0.45 0.32-0.29 0.48-0.67 0.48-1.09 0-2.46-0.9-4.54-2.63-6.27s-3.81-2.62-6.27-2.62zm115.56 0c-2.46 0-4.54 0.89-6.27 2.62s-2.59 3.81-2.59 6.27c0 2.47 0.86 4.55 2.59 6.27 1.73 1.73 3.81 2.6 6.27 2.6 2.11 0 3.97-0.64 5.6-1.99 0.35-0.25 0.51-0.61 0.58-1.02 0.03-0.45-0.07-0.8-0.35-1.15-0.26-0.32-0.61-0.52-1.03-0.55-0.41-0.03-0.8 0.07-1.12 0.35-1.09 0.87-2.3 1.28-3.68 1.28-1.6 0-2.97-0.54-4.09-1.69-1.16-1.12-1.7-2.5-1.7-4.1s0.54-2.97 1.7-4.13c1.12-1.12 2.49-1.69 4.09-1.69 1.31 0 2.5 0.41 3.55 1.21 1.03 0.8 1.7 1.83 2.05 3.08h-5.6c-0.41 0-0.8 0.16-1.09 0.44-0.28 0.29-0.44 0.68-0.44 1.09 0 0.42 0.16 0.8 0.44 1.09 0.29 0.29 0.68 0.45 1.09 0.45h7.36c0.42 0 0.77-0.16 1.06-0.45 0.32-0.29 0.48-0.67 0.48-1.09 0-2.46-0.9-4.54-2.63-6.27-1.72-1.73-3.8-2.62-6.27-2.62zm98.26 0c-2.46 0-4.54 0.89-6.27 2.62s-2.59 3.81-2.59 6.27c0 2.47 0.86 4.55 2.59 6.27 1.73 1.73 3.81 2.6 6.27 2.6s4.55-0.87 6.27-2.6c1.73-1.72 2.63-3.8 2.63-6.27 0-2.46-0.9-4.54-2.63-6.27-1.72-1.73-3.81-2.62-6.27-2.62zm67.87 0c-2.47 0-4.55 0.89-6.27 2.62-1.73 1.73-2.6 3.81-2.6 6.27 0 2.47 0.87 4.55 2.6 6.27 1.72 1.73 3.8 2.6 6.27 2.6 2.11 0 3.96-0.64 5.6-1.99 0.35-0.25 0.51-0.61 0.57-1.02 0.04-0.45-0.06-0.8-0.35-1.15-0.25-0.32-0.61-0.52-1.02-0.55-0.42-0.03-0.8 0.07-1.12 0.35-1.09 0.87-2.31 1.28-3.68 1.28-1.6 0-2.98-0.54-4.1-1.69-1.15-1.12-1.7-2.5-1.7-4.1s0.55-2.97 1.7-4.13c1.12-1.12 2.5-1.69 4.1-1.69 1.31 0 2.49 0.41 3.55 1.21 1.02 0.8 1.69 1.83 2.05 3.08h-5.6c-0.42 0-0.8 0.16-1.09 0.44-0.29 0.29-0.45 0.68-0.45 1.09 0 0.42 0.16 0.8 0.45 1.09s0.67 0.45 1.09 0.45h7.36c0.41 0 0.77-0.16 1.05-0.45 0.32-0.29 0.48-0.67 0.48-1.09 0-2.46-0.89-4.54-2.62-6.27s-3.81-2.62-6.27-2.62zm28.1 0c-2.43 0-4.54 0.89-6.27 2.62s-2.59 3.81-2.59 6.27c0 2.47 0.86 4.55 2.59 6.27 1.73 1.73 3.84 2.6 6.27 2.6 2.21 0 4.16-0.71 5.82-2.15v0.61c0 0.45 0.13 0.8 0.45 1.09 0.29 0.32 0.64 0.45 1.09 0.45 0.41 0 0.77-0.13 1.09-0.45 0.28-0.29 0.45-0.64 0.45-1.09v-7.33c0-2.46-0.87-4.54-2.63-6.27-1.73-1.73-3.81-2.62-6.27-2.62zm-126.01 0.03c-2.46 0-4.54 0.86-6.27 2.59s-2.59 3.84-2.59 6.27v14.72c0 0.45 0.13 0.8 0.45 1.09 0.28 0.32 0.63 0.45 1.08 0.45 0.42 0 0.77-0.13 1.06-0.45 0.32-0.29 0.48-0.64 0.48-1.09v-8c1.63 1.44 3.58 2.18 5.79 2.18 2.47 0 4.54-0.87 6.27-2.59 1.73-1.76 2.63-3.84 2.63-6.31 0-2.43-0.9-4.54-2.63-6.27s-3.8-2.59-6.27-2.59zm-291.85 0.09c-0.48 0-0.86 0.16-1.18 0.45-0.32 0.32-0.45 0.71-0.45 1.19v14.24c0 0.48 0.13 0.86 0.45 1.18s0.7 0.45 1.18 0.45 0.86-0.13 1.18-0.45c0.29-0.32 0.45-0.7 0.45-1.18v-14.24c0-0.48-0.16-0.87-0.45-1.19-0.32-0.29-0.7-0.45-1.18-0.45zm199.88 0c-0.48 0-0.87 0.16-1.19 0.45-0.32 0.32-0.45 0.71-0.45 1.19v14.24c0 0.48 0.13 0.86 0.45 1.18s0.71 0.45 1.19 0.45 0.86-0.13 1.18-0.45c0.29-0.32 0.45-0.7 0.45-1.18v-14.24c0-0.48-0.16-0.87-0.45-1.19-0.32-0.29-0.7-0.45-1.18-0.45zm-152.08 0.04c-0.29 0-0.54 0.06-0.8 0.22-0.22 0.13-0.45 0.32-0.57 0.58-0.13 0.22-0.23 0.51-0.23 0.8v15.29c0 1.38-0.48 2.53-1.44 3.52-0.99 0.96-2.14 1.44-3.52 1.44-0.45 0-0.83 0.16-1.15 0.48-0.29 0.32-0.45 0.71-0.45 1.12 0 0.45 0.16 0.83 0.45 1.15 0.32 0.32 0.7 0.45 1.15 0.45 2.24 0 4.19-0.8 5.79-2.37 1.57-1.6 2.37-3.55 2.37-5.79v-15.29c0-0.45-0.16-0.84-0.45-1.12-0.32-0.32-0.7-0.48-1.15-0.48zm-23.69 2.91c1.6 0 2.97 0.57 4.09 1.73 1.16 1.12 1.73 2.49 1.73 4.09s-0.57 2.98-1.73 4.1c-1.12 1.15-2.49 1.69-4.09 1.69s-2.98-0.54-4.1-1.69c-1.15-1.12-1.69-2.5-1.69-4.1s0.54-2.97 1.69-4.09c1.12-1.16 2.5-1.73 4.1-1.73zm297.78 0c1.6 0 2.98 0.57 4.13 1.69 1.12 1.16 1.69 2.53 1.69 4.13s-0.57 2.98-1.69 4.1c-1.15 1.15-2.53 1.69-4.13 1.69s-2.98-0.54-4.1-1.69c-1.15-1.12-1.69-2.5-1.69-4.1s0.54-2.97 1.69-4.13c1.12-1.12 2.5-1.69 4.1-1.69zm95.97 0c1.6 0 2.97 0.57 4.09 1.73 1.16 1.12 1.73 2.49 1.73 4.09s-0.57 2.98-1.73 4.1c-1.12 1.15-2.49 1.69-4.09 1.69s-2.98-0.54-4.1-1.69c-1.15-1.12-1.69-2.5-1.69-4.1s0.54-2.97 1.69-4.09c1.12-1.16 2.5-1.73 4.1-1.73zm-126.01 0.03c1.6 0 2.98 0.58 4.1 1.7 1.15 1.15 1.73 2.49 1.73 4.09s-0.58 2.98-1.73 4.13c-1.12 1.12-2.5 1.7-4.1 1.7s-2.97-0.58-4.09-1.7c-1.16-1.15-1.7-2.53-1.7-4.13 0-1.02 0.26-2.01 0.77-2.91s1.21-1.6 2.11-2.11c0.89-0.51 1.86-0.77 2.91-0.77zm167.32 10.08c-0.61 0-1.12 0.22-1.57 0.67s-0.64 0.96-0.64 1.57c0 0.64 0.19 1.15 0.64 1.57 0.45 0.45 0.96 0.64 1.57 0.64 0.57 0 1.08-0.19 1.53-0.64 0.45-0.42 0.67-0.93 0.67-1.57 0-0.61-0.22-1.12-0.67-1.57s-0.96-0.67-1.53-0.67z" fill="#ffffff" transform="translate(153.6 115.2) scale(0.7)" />
</svg>
