<?xml version="1.0" encoding="utf-8"?>
<svg version="1.1" xmlns:cc="http://creativecommons.org/ns#" xmlns:dc="http://purl.org/dc/elements/1.1/" xmlns:rdf="http://www.w3.org/1999/02/22-rdf-syntax-ns#" xmlns="http://www.w3.org/2000/svg" xmlns:xlink="http://www.w3.org/1999/xlink" x="0px" y="0px" viewBox="0 0 1024 768" xml:space="preserve">

 
 <g id="logo-group" transform="translate(2.8422e-14) scale(1)">
  <path id="path244071" style="font-variant-ligatures:none" d="m285.08 464.06c-0.256-0.256-0.64-0.384-1.088-0.384-0.384 0-0.704 0.096-0.928 0.224-0.256 0.128-0.448 0.384-0.576 0.768l-8.192 19.328-8.064-19.328c-0.288-0.64-0.8-0.992-1.536-0.992-0.48 0-0.864 0.128-1.12 0.384s-0.384 0.576-0.384 0.992c0 0.32 0.064 0.672 0.256 1.12l9.376 21.44c0.32 0.704 0.8 1.056 1.504 1.056s1.216-0.352 1.504-1.056l9.472-21.728c0.128-0.288 0.192-0.576 0.192-0.832 0-0.384-0.16-0.736-0.416-0.992z" stroke-miterlimit="2" stroke-width="0" fill="#804b64"/>
  <path id="path244073" style="font-variant-ligatures:none" d="m298.26 471.61c-0.32 0.32-0.448 0.704-0.448 1.184v14.24c0 0.48 0.128 0.864 0.448 1.184s0.704 0.448 1.184 0.448 0.864-0.128 1.184-0.448c0.288-0.32 0.448-0.704 0.448-1.184v-14.24c0-0.48-0.16-0.864-0.448-1.184-0.32-0.288-0.704-0.448-1.184-0.448s-0.864 0.16-1.184 0.448zm2.656-6.88c-0.416-0.416-0.896-0.64-1.472-0.64s-1.088 0.224-1.504 0.64-0.608 0.896-0.608 1.472 0.192 1.088 0.608 1.504 0.928 0.608 1.504 0.608 1.056-0.192 1.472-0.608 0.64-0.928 0.64-1.504-0.224-1.056-0.64-1.472z" stroke-miterlimit="2" stroke-width="0" fill="#804b64"/>
  <path id="path244075" style="font-variant-ligatures:none" d="m329.82 473.66c-1.728-1.728-3.808-2.624-6.272-2.624-2.432 0-4.544 0.896-6.272 2.624s-2.592 3.808-2.592 6.272 0.864 4.544 2.592 6.272 3.84 2.592 6.272 2.592c2.208 0 4.16-0.704 5.824-2.144v0.608c0 0.448 0.128 0.8 0.448 1.088 0.288 0.32 0.64 0.448 1.088 0.448 0.416 0 0.768-0.128 1.088-0.448 0.288-0.288 0.448-0.64 0.448-1.088v-7.328c0-2.464-0.864-4.544-2.624-6.272zm-6.272 12.064c-1.6 0-2.976-0.544-4.096-1.696-1.152-1.12-1.696-2.496-1.696-4.096s0.544-2.976 1.696-4.096c1.12-1.152 2.496-1.728 4.096-1.728s2.976 0.576 4.096 1.728c1.152 1.12 1.728 2.496 1.728 4.096s-0.576 2.976-1.728 4.096c-1.12 1.152-2.496 1.696-4.096 1.696z" stroke-miterlimit="2" stroke-width="0" fill="#804b64"/>
  <path id="path244077" style="font-variant-ligatures:none" d="m340.68 496.25c2.24 0 4.192-0.8 5.792-2.368 1.568-1.6 2.368-3.552 2.368-5.792v-15.296c0-0.448-0.16-0.832-0.448-1.12-0.32-0.32-0.704-0.48-1.152-0.48-0.288 0-0.544 0.064-0.8 0.224-0.224 0.128-0.448 0.32-0.576 0.576-0.128 0.224-0.224 0.512-0.224 0.8v15.296c0 1.376-0.48 2.528-1.44 3.52-0.992 0.96-2.144 1.44-3.52 1.44-0.448 0-0.832 0.16-1.152 0.48-0.288 0.32-0.448 0.704-0.448 1.12 0 0.448 0.16 0.832 0.448 1.152 0.32 0.32 0.704 0.448 1.152 0.448zm8.064-31.52c-0.416-0.416-0.896-0.64-1.472-0.64s-1.088 0.224-1.504 0.64-0.608 0.896-0.608 1.472 0.192 1.088 0.608 1.504 0.928 0.608 1.504 0.608 1.056-0.192 1.472-0.608 0.64-0.928 0.64-1.504-0.224-1.056-0.64-1.472z" stroke-miterlimit="2" stroke-width="0" fill="#804b64"/>
  <path id="path244079" style="font-variant-ligatures:none" d="m369.76 488.8c2.112 0 3.968-0.64 5.6-1.984 0.352-0.256 0.512-0.608 0.576-1.024 0.032-0.448-0.064-0.8-0.352-1.152-0.256-0.32-0.608-0.512-1.024-0.544s-0.8 0.064-1.12 0.352c-1.088 0.864-2.304 1.28-3.68 1.28-1.6 0-2.976-0.544-4.096-1.696-1.152-1.12-1.696-2.496-1.696-4.096s0.544-2.976 1.696-4.128c1.12-1.12 2.496-1.696 4.096-1.696 1.312 0 2.496 0.416 3.552 1.216 1.024 0.8 1.696 1.824 2.048 3.072h-5.6c-0.416 0-0.8 0.16-1.088 0.448s-0.448 0.672-0.448 1.088 0.16 0.8 0.448 1.088 0.672 0.448 1.088 0.448h7.36c0.416 0 0.768-0.16 1.056-0.448 0.32-0.288 0.48-0.672 0.48-1.088 0-2.464-0.896-4.544-2.624-6.272s-3.808-2.624-6.272-2.624-4.544 0.896-6.272 2.624-2.592 3.808-2.592 6.272 0.864 4.544 2.592 6.272 3.808 2.592 6.272 2.592z" stroke-miterlimit="2" stroke-width="0" fill="#804b64"/>
  <path id="path244081" style="font-variant-ligatures:none" d="m407.51 488.8c2.112 0 3.968-0.64 5.6-1.984 0.352-0.256 0.512-0.608 0.576-1.024 0.032-0.448-0.064-0.8-0.352-1.152-0.256-0.32-0.608-0.512-1.024-0.544s-0.8 0.064-1.12 0.352c-1.088 0.864-2.304 1.28-3.68 1.28-1.6 0-2.976-0.544-4.096-1.696-1.152-1.12-1.696-2.496-1.696-4.096s0.544-2.976 1.696-4.128c1.12-1.12 2.496-1.696 4.096-1.696 1.312 0 2.496 0.416 3.552 1.216 1.024 0.8 1.696 1.824 2.048 3.072h-5.6c-0.416 0-0.8 0.16-1.088 0.448s-0.448 0.672-0.448 1.088 0.16 0.8 0.448 1.088 0.672 0.448 1.088 0.448h7.36c0.416 0 0.768-0.16 1.056-0.448 0.32-0.288 0.48-0.672 0.48-1.088 0-2.464-0.896-4.544-2.624-6.272s-3.808-2.624-6.272-2.624-4.544 0.896-6.272 2.624-2.592 3.808-2.592 6.272 0.864 4.544 2.592 6.272 3.808 2.592 6.272 2.592z" stroke-miterlimit="2" stroke-width="0" fill="#804b64"/>
  <path id="path244083" style="font-variant-ligatures:none" d="m443.12 488.76c0.448 0 0.832-0.16 1.152-0.48s0.448-0.704 0.448-1.152v-8.224c0-2.24-0.8-4.16-2.368-5.76-1.6-1.6-3.552-2.4-5.792-2.4-2.272 0-4.192 0.8-5.792 2.4s-2.4 3.52-2.4 5.76v8.224c0 0.448 0.16 0.832 0.48 1.152s0.704 0.448 1.12 0.448c0.448 0 0.832-0.128 1.152-0.448s0.448-0.704 0.448-1.152v-8.224c0-1.344 0.512-2.528 1.472-3.488 0.96-0.992 2.144-1.472 3.52-1.472s2.528 0.48 3.52 1.472c0.96 0.96 1.44 2.144 1.44 3.488v8.256c0 0.416 0.16 0.8 0.48 1.12s0.704 0.48 1.12 0.48z" stroke-miterlimit="2" stroke-width="0" fill="#804b64"/>
  <path id="path244085" style="font-variant-ligatures:none" d="m485.4 464.12c-0.288-0.288-0.64-0.448-1.088-0.448h-17.12c-0.448 0-0.832 0.16-1.12 0.448s-0.416 0.64-0.416 1.088 0.128 0.832 0.416 1.12 0.672 0.416 1.12 0.416h6.912v20.256c0 0.48 0.16 0.864 0.48 1.184s0.704 0.48 1.184 0.48c0.448 0 0.864-0.16 1.184-0.48s0.48-0.704 0.48-1.184v-20.256h6.88c0.448 0 0.8-0.128 1.088-0.416s0.448-0.672 0.448-1.12-0.16-0.8-0.448-1.088z" stroke-miterlimit="2" stroke-width="0" fill="#804b64"/>
  <path id="path244087" style="font-variant-ligatures:none" d="m498.13 471.61c-0.32 0.32-0.448 0.704-0.448 1.184v14.24c0 0.48 0.128 0.864 0.448 1.184s0.704 0.448 1.184 0.448 0.864-0.128 1.184-0.448c0.288-0.32 0.448-0.704 0.448-1.184v-14.24c0-0.48-0.16-0.864-0.448-1.184-0.32-0.288-0.704-0.448-1.184-0.448s-0.864 0.16-1.184 0.448zm2.656-6.88c-0.416-0.416-0.896-0.64-1.472-0.64s-1.088 0.224-1.504 0.64-0.608 0.896-0.608 1.472 0.192 1.088 0.608 1.504 0.928 0.608 1.504 0.608 1.056-0.192 1.472-0.608 0.64-0.928 0.64-1.504-0.224-1.056-0.64-1.472z" stroke-miterlimit="2" stroke-width="0" fill="#804b64"/>
  <path id="path244089" style="font-variant-ligatures:none" d="m523.07 488.8c2.112 0 3.968-0.64 5.6-1.984 0.352-0.256 0.512-0.608 0.576-1.024 0.032-0.448-0.064-0.8-0.352-1.152-0.256-0.32-0.608-0.512-1.024-0.544s-0.8 0.064-1.12 0.352c-1.088 0.864-2.304 1.28-3.68 1.28-1.6 0-2.976-0.544-4.096-1.696-1.152-1.12-1.696-2.496-1.696-4.096s0.544-2.976 1.696-4.128c1.12-1.12 2.496-1.696 4.096-1.696 1.312 0 2.496 0.416 3.552 1.216 1.024 0.8 1.696 1.824 2.048 3.072h-5.6c-0.416 0-0.8 0.16-1.088 0.448s-0.448 0.672-0.448 1.088 0.16 0.8 0.448 1.088 0.672 0.448 1.088 0.448h7.36c0.416 0 0.768-0.16 1.056-0.448 0.32-0.288 0.48-0.672 0.48-1.088 0-2.464-0.896-4.544-2.624-6.272s-3.808-2.624-6.272-2.624-4.544 0.896-6.272 2.624-2.592 3.808-2.592 6.272 0.864 4.544 2.592 6.272 3.808 2.592 6.272 2.592z" stroke-miterlimit="2" stroke-width="0" fill="#804b64"/>
  <path id="path244091" style="font-variant-ligatures:none" d="m566.46 472.6c-1.344-1.344-2.976-2.016-4.896-2.016s-3.552 0.672-4.896 2.016c-0.16 0.16-0.288 0.32-0.448 0.48-0.128-0.16-0.288-0.32-0.416-0.48-1.376-1.344-3.008-2.016-4.928-2.016s-3.552 0.672-4.896 2.016c-1.344 1.376-2.016 3.008-2.016 4.928v9.6c0 0.448 0.128 0.8 0.448 1.12s0.704 0.48 1.152 0.48c0.416 0 0.8-0.16 1.12-0.48s0.48-0.672 0.48-1.12v-9.6c0-1.024 0.352-1.92 1.088-2.656s1.6-1.088 2.624-1.088c1.056 0 1.92 0.352 2.656 1.088s1.088 1.632 1.088 2.656v9.6c0 0.448 0.16 0.8 0.48 1.12s0.672 0.48 1.12 0.48 0.832-0.16 1.12-0.48c0.32-0.32 0.48-0.672 0.48-1.12v-9.6c0-0.672 0.16-1.312 0.512-1.888 0.32-0.576 0.768-1.024 1.344-1.344 0.576-0.352 1.216-0.512 1.888-0.512 1.024 0 1.92 0.352 2.624 1.088 0.736 0.736 1.12 1.632 1.12 2.656v9.6c0 0.448 0.128 0.8 0.448 1.12s0.704 0.48 1.152 0.48c0.416 0 0.8-0.16 1.12-0.48s0.48-0.672 0.48-1.12v-9.6c0-1.92-0.704-3.552-2.048-4.928z" stroke-miterlimit="2" stroke-width="0" fill="#804b64"/>
  <path id="path244093" style="font-variant-ligatures:none" d="m597.56 473.66c-1.728-1.728-3.808-2.592-6.272-2.592s-4.544 0.864-6.272 2.592-2.592 3.84-2.592 6.272v14.72c0 0.448 0.128 0.8 0.448 1.088 0.288 0.32 0.64 0.448 1.088 0.448 0.416 0 0.768-0.128 1.056-0.448 0.32-0.288 0.48-0.64 0.48-1.088v-8c1.632 1.44 3.584 2.176 5.792 2.176 2.464 0 4.544-0.864 6.272-2.592 1.728-1.76 2.624-3.84 2.624-6.304 0-2.432-0.896-4.544-2.624-6.272zm-6.272 12.096c-1.6 0-2.976-0.576-4.096-1.696-1.152-1.152-1.696-2.528-1.696-4.128 0-1.024 0.256-2.016 0.768-2.912s1.216-1.6 2.112-2.112 1.856-0.768 2.912-0.768c1.6 0 2.976 0.576 4.096 1.696 1.152 1.152 1.728 2.496 1.728 4.096s-0.576 2.976-1.728 4.128c-1.12 1.12-2.496 1.696-4.096 1.696z" stroke-miterlimit="2" stroke-width="0" fill="#804b64"/>
  <path id="path244095" style="font-variant-ligatures:none" d="m621.33 488.8c2.464 0 4.544-0.864 6.272-2.592s2.624-3.808 2.624-6.272-0.896-4.544-2.624-6.272-3.808-2.624-6.272-2.624-4.544 0.896-6.272 2.624-2.592 3.808-2.592 6.272 0.864 4.544 2.592 6.272 3.808 2.592 6.272 2.592zm0-14.688c1.6 0 2.976 0.576 4.128 1.696 1.12 1.152 1.696 2.528 1.696 4.128s-0.576 2.976-1.696 4.096c-1.152 1.152-2.528 1.696-4.128 1.696s-2.976-0.544-4.096-1.696c-1.152-1.12-1.696-2.496-1.696-4.096s0.544-2.976 1.696-4.128c1.12-1.12 2.496-1.696 4.096-1.696z" stroke-miterlimit="2" stroke-width="0" fill="#804b64"/>
  <path id="path244097" style="font-variant-ligatures:none" d="m668.19 488.73c0.32 0 0.608-0.096 0.896-0.288 0.352-0.256 0.576-0.608 0.672-1.056 0.064-0.416 0-0.832-0.256-1.184l-5.28-7.616c1.12-0.48 2.048-1.184 2.848-2.112 1.248-1.44 1.856-3.136 1.856-5.024 0-2.144-0.768-3.968-2.272-5.504-1.536-1.504-3.36-2.272-5.504-2.272h-6.24c-0.448 0-0.8 0.16-1.12 0.48s-0.48 0.672-0.48 1.12v21.83c0 0.448 0.16 0.832 0.48 1.12 0.32 0.32 0.672 0.48 1.12 0.48s0.832-0.16 1.12-0.48c0.32-0.288 0.48-0.672 0.48-1.12v-20.224h4.64c1.248 0 2.336 0.448 3.232 1.344s1.344 1.952 1.344 3.232c0 1.12-0.384 2.112-1.088 2.944s-1.6 1.344-2.656 1.536l-0.576 0.064c-0.608 0.064-1.056 0.384-1.28 0.928-0.288 0.544-0.224 1.088 0.128 1.568l6.624 9.536c0.288 0.448 0.736 0.704 1.312 0.704z" stroke-miterlimit="2" stroke-width="0" fill="#804b64"/>
  <path id="path244099" style="font-variant-ligatures:none" d="m689.2 488.8c2.112 0 3.968-0.64 5.6-1.984 0.352-0.256 0.512-0.608 0.576-1.024 0.032-0.448-0.064-0.8-0.352-1.152-0.256-0.32-0.608-0.512-1.024-0.544s-0.8 0.064-1.12 0.352c-1.088 0.864-2.304 1.28-3.68 1.28-1.6 0-2.976-0.544-4.096-1.696-1.152-1.12-1.696-2.496-1.696-4.096s0.544-2.976 1.696-4.128c1.12-1.12 2.496-1.696 4.096-1.696 1.312 0 2.496 0.416 3.552 1.216 1.024 0.8 1.696 1.824 2.048 3.072h-5.6c-0.416 0-0.8 0.16-1.088 0.448s-0.448 0.672-0.448 1.088 0.16 0.8 0.448 1.088 0.672 0.448 1.088 0.448h7.36c0.416 0 0.768-0.16 1.056-0.448 0.32-0.288 0.48-0.672 0.48-1.088 0-2.464-0.896-4.544-2.624-6.272s-3.808-2.624-6.272-2.624-4.544 0.896-6.272 2.624-2.592 3.808-2.592 6.272 0.864 4.544 2.592 6.272 3.808 2.592 6.272 2.592z" stroke-miterlimit="2" stroke-width="0" fill="#804b64"/>
  <path id="path244101" style="font-variant-ligatures:none" d="m723.57 473.66c-1.728-1.728-3.808-2.624-6.272-2.624-2.432 0-4.544 0.896-6.272 2.624s-2.592 3.808-2.592 6.272 0.864 4.544 2.592 6.272 3.84 2.592 6.272 2.592c2.208 0 4.16-0.704 5.824-2.144v0.608c0 0.448 0.128 0.8 0.448 1.088 0.288 0.32 0.64 0.448 1.088 0.448 0.416 0 0.768-0.128 1.088-0.448 0.288-0.288 0.448-0.64 0.448-1.088v-7.328c0-2.464-0.864-4.544-2.624-6.272zm-6.272 12.064c-1.6 0-2.976-0.544-4.096-1.696-1.152-1.12-1.696-2.496-1.696-4.096s0.544-2.976 1.696-4.096c1.12-1.152 2.496-1.728 4.096-1.728s2.976 0.576 4.096 1.728c1.152 1.12 1.728 2.496 1.728 4.096s-0.576 2.976-1.728 4.096c-1.12 1.152-2.496 1.696-4.096 1.696z" stroke-miterlimit="2" stroke-width="0" fill="#804b64"/>
  <path id="path244103" style="font-variant-ligatures:none" d="m739.36 464.12c-0.32 0.32-0.448 0.704-0.448 1.152v17.472c0 1.152 0.192 2.176 0.608 3.072 0.384 0.896 0.96 1.6 1.696 2.112s1.568 0.736 2.496 0.736h0.064c0.64 0 1.152-0.128 1.568-0.448 0.384-0.288 0.608-0.672 0.608-1.152 0-0.448-0.16-0.832-0.416-1.152-0.256-0.288-0.608-0.448-1.024-0.448h-0.8c-0.48 0-0.864-0.256-1.152-0.768-0.32-0.512-0.448-1.152-0.448-1.952v-17.472c0-0.448-0.16-0.832-0.448-1.152-0.32-0.288-0.704-0.448-1.152-0.448-0.48 0-0.864 0.16-1.152 0.448z" stroke-miterlimit="2" stroke-width="0" fill="#804b64"/>
  <path id="path244105" style="font-variant-ligatures:none" d="m757.42 464.16c-0.32 0.32-0.448 0.736-0.448 1.184v15.776c0 0.448 0.16 0.832 0.48 1.152s0.704 0.48 1.152 0.48c0.416 0 0.8-0.16 1.12-0.48s0.512-0.704 0.512-1.152v-15.78c0-0.448-0.16-0.864-0.48-1.184s-0.704-0.48-1.152-0.48c-0.48 0-0.864 0.16-1.184 0.48zm2.72 20.736c-0.448-0.448-0.96-0.672-1.536-0.672-0.608 0-1.12 0.224-1.568 0.672s-0.64 0.96-0.64 1.568c0 0.64 0.192 1.152 0.64 1.568 0.448 0.448 0.96 0.64 1.568 0.64 0.576 0 1.088-0.192 1.536-0.64 0.448-0.416 0.672-0.928 0.672-1.568 0-0.608-0.224-1.12-0.672-1.568z" stroke-miterlimit="2" stroke-width="0" fill="#804b64"/>
  <path id="path244108" style="font-variant-ligatures:none" d="m352.37 277.38v80.05h6.2424v-80.05h30.845v-5.6304h-67.932v5.6304z" stroke-miterlimit="2" stroke-width="0" fill="#172b54"/>
  <path id="path244110" style="font-variant-ligatures:none" d="m449.98 327.44c6.3648-1.836 11.383-5.0184 14.81-9.6696 3.4272-4.6512 5.2632-10.282 5.2632-17.136 0-8.9352-3.06-16.034-9.18-21.175-6.12-5.1408-14.566-7.7112-25.337-7.7112h-30.722v5.6304h30.722c9.0576 0 16.034 2.0808 20.93 6.12 4.7736 4.0392 7.2216 9.792 7.2216 17.136 0 7.4664-2.448 13.219-7.2216 17.258-4.896 4.0392-11.873 5.9976-20.93 5.9976h-30.722v33.538h6.2424v-28.03h24.48c2.448 0 5.2632-0.1224 8.3232-0.612l20.441 28.642h7.0992z" stroke-miterlimit="2" stroke-width="0" fill="#172b54"/>
  <path id="path244112" style="font-variant-ligatures:none" d="m524.37 271.75h-6.2424l-39.413 85.68h6.732l35.741-78.826 35.863 78.826h6.732z" stroke-miterlimit="2" stroke-width="0" fill="#172b54"/>
  <path id="path244114" style="font-variant-ligatures:none" d="m660.36 357.43h6.12l-0.1224-85.68h-5.1408l-38.311 66.218-38.311-66.218h-5.2632v85.68h6.12v-73.073l35.863 61.69h3.06l35.863-61.934z" stroke-miterlimit="2" stroke-width="0" fill="#172b54"/>
  <path id="path244116" style="font-variant-ligatures:none" d="m696.23 271.75v85.68h6.2424v-85.68z" stroke-miterlimit="2" stroke-width="0" fill="#172b54"/>
  <path id="path244118" style="font-variant-ligatures:none" d="m260.92 371.63v80.05h6.2424v-80.05h30.845v-5.6304h-67.932v5.6304z" stroke-miterlimit="2" stroke-width="0" fill="#172b54"/>
  <path id="path244120" style="font-variant-ligatures:none" d="m358.53 421.69c6.3648-1.836 11.383-5.0184 14.81-9.6696 3.4272-4.6512 5.2632-10.282 5.2632-17.136 0-8.9352-3.06-16.034-9.18-21.175-6.12-5.1408-14.566-7.7112-25.337-7.7112h-30.722v5.6304h30.722c9.0576 0 16.034 2.0808 20.93 6.12 4.7736 4.0392 7.2216 9.792 7.2216 17.136 0 7.4664-2.448 13.219-7.2216 17.258-4.896 4.0392-11.873 5.9976-20.93 5.9976h-30.722v33.538h6.2424v-28.03h24.48c2.448 0 5.2632-0.1224 8.3232-0.612l20.441 28.642h7.0992z" stroke-miterlimit="2" stroke-width="0" fill="#172b54"/>
  <path id="path244122" style="font-variant-ligatures:none" d="m432.91 366h-6.2424l-39.413 85.68h6.732l35.741-78.826 35.863 78.826h6.732z" stroke-miterlimit="2" stroke-width="0" fill="#172b54"/>
  <path id="path244126" style="font-variant-ligatures:none" d="m711.81 405.41h-55.447v5.508h55.447zm0-39.413h-55.447v5.6304h55.447zm-55.447 80.05v5.6304h55.447v-5.6304z" stroke-miterlimit="2" stroke-width="0" fill="#172b54"/>
  <path id="path244128" style="font-variant-ligatures:none" d="m738.36 366v85.68h55.57v-5.6304h-49.327v-80.05z" stroke-miterlimit="2" stroke-width="0" fill="#172b54"/>
  <path id="icon" stroke-width=".90189" fill="#804b64" d="m636.28 367.6c-0.6895-0.009-1.3324-0.007-1.4291 0.004-0.0963 0.0105-0.45733 0.0431-0.80233 0.0722-0.3445 0.0291-1.1007 0.12035-1.6799 0.20259-0.57918 0.0827-1.7185 0.28432-2.5323 0.4478-0.81335 0.16347-2.1562 0.46584-2.9836 0.67144-0.82739 0.2056-1.8313 0.46435-2.2315 0.57517-0.39966 0.11082-1.043 0.33146-1.4292 0.48991-0.38612 0.15896-1.4125 0.64437-2.2816 1.0787-0.86852 0.43476-2.234 1.1433-3.0338 1.5745-0.79982 0.43175-1.9055 1.034-2.4571 1.3389-0.55159 0.30538-1.8604 1.039-2.9084 1.6313-1.048 0.59222-2.8643 1.6307-4.0367 2.3077-1.1719 0.67696-3.3497 1.9461-4.839 2.8201-1.4893 0.87404-3.4976 2.0579-4.4629 2.6306-0.9653 0.57316-2.8718 1.7089-4.2373 2.5238-1.3649 0.81486-4.0392 2.4215-5.9422 3.5703-1.903 1.1483-4.2157 2.5474-5.1399 3.1085-0.92417 0.56112-3.1807 1.9376-5.0145 3.0594s-3.6526 2.2344-4.0412 2.4732l-0.70655 0.43376-0.24621-0.0722c-0.13539-0.0396-1.2727-0.34249-2.5278-0.67294-1.2546-0.33096-3.1501-0.8274-4.2122-1.1032-1.0615-0.27631-3.2168-0.83191-4.7889-1.2356-1.5721-0.40316-5.1033-1.2938-7.8477-1.9788-2.7439-0.68499-5.6539-1.407-6.4662-1.6047-0.81235-0.19757-2.1327-0.517-2.9335-0.70955-0.79998-0.19391-2.6507-0.63313-4.1126-0.97856-1.462-0.34452-3.696-0.86401-4.964-1.1535-1.269-0.29041-3.3785-0.76391-4.689-1.0534-1.3096-0.28951-3.1828-0.69537-4.1622-0.9019-0.97945-0.20653-2.5587-0.53392-3.5102-0.72602-0.9515-0.19301-2.6218-0.5195-3.7104-0.72693-1.0891-0.2076-2.8383-0.52151-3.8863-0.69753-1.048-0.17651-2.4581-0.40066-3.1341-0.49844-0.67546-0.0973-1.7135-0.23317-2.3067-0.30087-0.59272-0.0677-1.3941-0.15294-1.7802-0.18905-0.39765-0.0366-1.3214-0.0637-2.1312-0.0622l-1.4291 0.003-0.39665 0.10982c-0.21864 0.0607-0.49243 0.16548-0.60876 0.23417-0.11634 0.0682-0.31492 0.2387-0.44078 0.3786-0.12587 0.14041-0.28432 0.37208-0.35202 0.5155-0.0677 0.14291-0.15896 0.43426-0.20308 0.64687-0.0436 0.21262-0.0797 0.57818-0.0797 0.81286 0 0.23418 0.0256 0.59773 0.0567 0.80785l0.0567 0.3811 15.469 16.783c8.5082 9.23 15.544 16.862 15.637 16.958l0.16799 0.17601-25.057 15.419-25.056 15.42 18.789 0.0125 18.789 0.0125 54.472-33.152 54.472-33.152 1.2536-1.2607c0.6895-0.69351 1.6086-1.6508 2.0424-2.1277 0.43425-0.47638 1.0997-1.2291 1.4793-1.6724 0.3796-0.44329 0.99037-1.1814 1.3569-1.6407 0.36656-0.45883 0.95673-1.2406 1.3108-1.737 0.35453-0.49644 0.83542-1.207 1.0691-1.5796 0.23368-0.37258 0.56613-0.93626 0.73813-1.2531 0.17251-0.31692 0.41572-0.80233 0.54057-1.0781 0.12486-0.2763 0.31392-0.75719 0.41972-1.0696 0.10581-0.31191 0.23017-0.76321 0.2758-1.0029 0.0456-0.23919 0.0842-0.66092 0.0852-0.93671 0.002-0.2758-0.0276-0.62581-0.0642-0.77725-0.0366-0.15194-0.12035-0.39866-0.18654-0.54909-0.0656-0.15044-0.21211-0.39364-0.32544-0.54007-0.11282-0.14642-0.33998-0.36756-0.50496-0.49142-0.16448-0.12386-0.46485-0.30388-0.66744-0.39966-0.20309-0.0963-0.56012-0.23067-0.7938-0.29836-0.23367-0.0677-0.6579-0.15996-0.94275-0.2056-0.35002-0.0557-0.92318-0.0872-1.7711-0.0978zm-162.52 65.242c-0.19306-0.008-0.64437 0.002-1.0029 0.0241-0.35854 0.0216-0.82289 0.0837-1.032 0.1379-0.2091 0.0542-0.49142 0.14994-0.62681 0.21263-0.1359 0.0632-0.37509 0.2447-0.53205 0.40367-0.19958 0.20207-0.35352 0.42874-0.51299 0.75468-0.12587 0.25624-0.28383 0.66192-0.35202 0.90161-0.0677 0.2397-0.15946 0.67947-0.20409 0.97783-0.0441 0.29837-0.0923 0.83543-0.10681 1.1939l-0.0266 0.65189 6.0506 5.7918c3.3276 3.1852 6.0771 5.7898 6.1097 5.7867 0.0326-0.003 3.7147-2.5845 8.1823-5.7377 4.468-3.1531 8.1331-5.7406 8.1446-5.7497 0.0115-0.008 0.009-0.0276-0.005-0.0421-0.014-0.0141-0.32795-0.11734-0.69753-0.22866-0.36956-0.11183-1.4051-0.4142-2.3016-0.67245-0.8961-0.25775-2.2049-0.62681-2.9084-0.81987-0.70304-0.19306-1.8935-0.51148-2.6452-0.70756-0.75167-0.19656-2.0489-0.52402-2.8834-0.72811-0.83441-0.20409-2.081-0.49543-2.7705-0.64787-0.68949-0.15245-1.75-0.3776-2.3568-0.50045-0.60676-0.12286-1.577-0.30389-2.1562-0.40217-0.57918-0.0983-1.2838-0.21262-1.5651-0.25474-0.28181-0.0421-0.90613-0.12135-1.3876-0.17651-0.4814-0.0547-1.1423-0.11182-1.4687-0.12637-0.32645-0.0145-0.75117-0.0336-0.94419-0.0427z"/>
 </g>

</svg>