<svg width="600" height="250" xmlns="http://www.w3.org/2000/svg">

 <g>
  <g>
   <g transform="translate(2.84220e-14 0) scale(1 1)" id="svg_1">
    <path fill="#804b64" stroke-width="0" stroke-miterlimit="2" d="m77.0773,207.0609c-0.256,-0.256 -0.64,-0.384 -1.088,-0.384c-0.384,0 -0.704,0.096 -0.928,0.224c-0.256,0.128 -0.448,0.384 -0.576,0.768l-8.192,19.328l-8.064,-19.328c-0.288,-0.64 -0.8,-0.992 -1.536,-0.992c-0.48,0 -0.864,0.128 -1.12,0.384s-0.384,0.576 -0.384,0.992c0,0.32 0.064,0.672 0.256,1.12l9.376,21.44c0.32,0.704 0.8,1.056 1.504,1.056s1.216,-0.352 1.504,-1.056l9.472,-21.728c0.128,-0.288 0.192,-0.576 0.192,-0.832c0,-0.384 -0.16,-0.736 -0.416,-0.992z" id="svg_30"/>
    <path fill="#804b64" stroke-width="0" stroke-miterlimit="2" d="m90.2573,214.6109c-0.32,0.32 -0.448,0.704 -0.448,1.184l0,14.24c0,0.48 0.128,0.864 0.448,1.184s0.704,0.448 1.184,0.448s0.864,-0.128 1.184,-0.448c0.288,-0.32 0.448,-0.704 0.448,-1.184l0,-14.24c0,-0.48 -0.16,-0.864 -0.448,-1.184c-0.32,-0.288 -0.704,-0.448 -1.184,-0.448s-0.864,0.16 -1.184,0.448zm2.656,-6.88c-0.416,-0.416 -0.896,-0.64 -1.472,-0.64s-1.088,0.224 -1.504,0.64s-0.608,0.896 -0.608,1.472s0.192,1.088 0.608,1.504s0.928,0.608 1.504,0.608s1.056,-0.192 1.472,-0.608s0.64,-0.928 0.64,-1.504s-0.224,-1.056 -0.64,-1.472z" id="svg_29"/>
    <path fill="#804b64" stroke-width="0" stroke-miterlimit="2" d="m121.8173,216.6609c-1.728,-1.728 -3.808,-2.624 -6.272,-2.624c-2.432,0 -4.544,0.896 -6.272,2.624s-2.592,3.808 -2.592,6.272s0.864,4.544 2.592,6.272s3.84,2.592 6.272,2.592c2.208,0 4.16,-0.704 5.824,-2.144l0,0.608c0,0.448 0.128,0.8 0.448,1.088c0.288,0.32 0.64,0.448 1.088,0.448c0.416,0 0.768,-0.128 1.088,-0.448c0.288,-0.288 0.448,-0.64 0.448,-1.088l0,-7.328c0,-2.464 -0.864,-4.544 -2.624,-6.272zm-6.272,12.064c-1.6,0 -2.976,-0.544 -4.096,-1.696c-1.152,-1.12 -1.696,-2.496 -1.696,-4.096s0.544,-2.976 1.696,-4.096c1.12,-1.152 2.496,-1.728 4.096,-1.728s2.976,0.576 4.096,1.728c1.152,1.12 1.728,2.496 1.728,4.096s-0.576,2.976 -1.728,4.096c-1.12,1.152 -2.496,1.696 -4.096,1.696z" id="svg_28"/>
    <path fill="#804b64" stroke-width="0" stroke-miterlimit="2" d="m132.6773,239.2509c2.24,0 4.192,-0.8 5.792,-2.368c1.568,-1.6 2.368,-3.552 2.368,-5.792l0,-15.296c0,-0.448 -0.16,-0.832 -0.448,-1.12c-0.32,-0.32 -0.704,-0.48 -1.152,-0.48c-0.288,0 -0.544,0.064 -0.8,0.224c-0.224,0.128 -0.448,0.32 -0.576,0.576c-0.128,0.224 -0.224,0.512 -0.224,0.8l0,15.296c0,1.376 -0.48,2.528 -1.44,3.52c-0.992,0.96 -2.144,1.44 -3.52,1.44c-0.448,0 -0.832,0.16 -1.152,0.48c-0.288,0.32 -0.448,0.704 -0.448,1.12c0,0.448 0.16,0.832 0.448,1.152c0.32,0.32 0.704,0.448 1.152,0.448zm8.064,-31.52c-0.416,-0.416 -0.896,-0.64 -1.472,-0.64s-1.088,0.224 -1.504,0.64s-0.608,0.896 -0.608,1.472s0.192,1.088 0.608,1.504s0.928,0.608 1.504,0.608s1.056,-0.192 1.472,-0.608s0.64,-0.928 0.64,-1.504s-0.224,-1.056 -0.64,-1.472z" id="svg_27"/>
    <path fill="#804b64" stroke-width="0" stroke-miterlimit="2" d="m161.7573,231.8009c2.112,0 3.968,-0.64 5.6,-1.984c0.352,-0.256 0.512,-0.608 0.576,-1.024c0.032,-0.448 -0.064,-0.8 -0.352,-1.152c-0.256,-0.32 -0.608,-0.512 -1.024,-0.544s-0.8,0.064 -1.12,0.352c-1.088,0.864 -2.304,1.28 -3.68,1.28c-1.6,0 -2.976,-0.544 -4.096,-1.696c-1.152,-1.12 -1.696,-2.496 -1.696,-4.096s0.544,-2.976 1.696,-4.128c1.12,-1.12 2.496,-1.696 4.096,-1.696c1.312,0 2.496,0.416 3.552,1.216c1.024,0.8 1.696,1.824 2.048,3.072l-5.6,0c-0.416,0 -0.8,0.16 -1.088,0.448s-0.448,0.672 -0.448,1.088s0.16,0.8 0.448,1.088s0.672,0.448 1.088,0.448l7.36,0c0.416,0 0.768,-0.16 1.056,-0.448c0.32,-0.288 0.48,-0.672 0.48,-1.088c0,-2.464 -0.896,-4.544 -2.624,-6.272s-3.808,-2.624 -6.272,-2.624s-4.544,0.896 -6.272,2.624s-2.592,3.808 -2.592,6.272s0.864,4.544 2.592,6.272s3.808,2.592 6.272,2.592z" id="svg_26"/>
    <path fill="#804b64" stroke-width="0" stroke-miterlimit="2" d="m199.5073,231.8009c2.112,0 3.968,-0.64 5.6,-1.984c0.352,-0.256 0.512,-0.608 0.576,-1.024c0.032,-0.448 -0.064,-0.8 -0.352,-1.152c-0.256,-0.32 -0.608,-0.512 -1.024,-0.544s-0.8,0.064 -1.12,0.352c-1.088,0.864 -2.304,1.28 -3.68,1.28c-1.6,0 -2.976,-0.544 -4.096,-1.696c-1.152,-1.12 -1.696,-2.496 -1.696,-4.096s0.544,-2.976 1.696,-4.128c1.12,-1.12 2.496,-1.696 4.096,-1.696c1.312,0 2.496,0.416 3.552,1.216c1.024,0.8 1.696,1.824 2.048,3.072l-5.6,0c-0.416,0 -0.8,0.16 -1.088,0.448s-0.448,0.672 -0.448,1.088s0.16,0.8 0.448,1.088s0.672,0.448 1.088,0.448l7.36,0c0.416,0 0.768,-0.16 1.056,-0.448c0.32,-0.288 0.48,-0.672 0.48,-1.088c0,-2.464 -0.896,-4.544 -2.624,-6.272s-3.808,-2.624 -6.272,-2.624s-4.544,0.896 -6.272,2.624s-2.592,3.808 -2.592,6.272s0.864,4.544 2.592,6.272s3.808,2.592 6.272,2.592z" id="svg_25"/>
    <path fill="#804b64" stroke-width="0" stroke-miterlimit="2" d="m235.1173,231.7609c0.448,0 0.832,-0.16 1.152,-0.48s0.448,-0.704 0.448,-1.152l0,-8.224c0,-2.24 -0.8,-4.16 -2.368,-5.76c-1.6,-1.6 -3.552,-2.4 -5.792,-2.4c-2.272,0 -4.192,0.8 -5.792,2.4s-2.4,3.52 -2.4,5.76l0,8.224c0,0.448 0.16,0.832 0.48,1.152s0.704,0.448 1.12,0.448c0.448,0 0.832,-0.128 1.152,-0.448s0.448,-0.704 0.448,-1.152l0,-8.224c0,-1.344 0.512,-2.528 1.472,-3.488c0.96,-0.992 2.144,-1.472 3.52,-1.472s2.528,0.48 3.52,1.472c0.96,0.96 1.44,2.144 1.44,3.488l0,8.256c0,0.416 0.16,0.8 0.48,1.12s0.704,0.48 1.12,0.48z" id="svg_24"/>
    <path fill="#804b64" stroke-width="0" stroke-miterlimit="2" d="m277.3973,207.1209c-0.288,-0.288 -0.64,-0.448 -1.088,-0.448l-17.12,0c-0.448,0 -0.832,0.16 -1.12,0.448s-0.416,0.64 -0.416,1.088s0.128,0.832 0.416,1.12s0.672,0.416 1.12,0.416l6.912,0l0,20.256c0,0.48 0.16,0.864 0.48,1.184s0.704,0.48 1.184,0.48c0.448,0 0.864,-0.16 1.184,-0.48s0.48,-0.704 0.48,-1.184l0,-20.256l6.88,0c0.448,0 0.8,-0.128 1.088,-0.416s0.448,-0.672 0.448,-1.12s-0.16,-0.8 -0.448,-1.088z" id="svg_23"/>
    <path fill="#804b64" stroke-width="0" stroke-miterlimit="2" d="m290.1273,214.6109c-0.32,0.32 -0.448,0.704 -0.448,1.184l0,14.24c0,0.48 0.128,0.864 0.448,1.184s0.704,0.448 1.184,0.448s0.864,-0.128 1.184,-0.448c0.288,-0.32 0.448,-0.704 0.448,-1.184l0,-14.24c0,-0.48 -0.16,-0.864 -0.448,-1.184c-0.32,-0.288 -0.704,-0.448 -1.184,-0.448s-0.864,0.16 -1.184,0.448zm2.656,-6.88c-0.416,-0.416 -0.896,-0.64 -1.472,-0.64s-1.088,0.224 -1.504,0.64s-0.608,0.896 -0.608,1.472s0.192,1.088 0.608,1.504s0.928,0.608 1.504,0.608s1.056,-0.192 1.472,-0.608s0.64,-0.928 0.64,-1.504s-0.224,-1.056 -0.64,-1.472z" id="svg_22"/>
    <path fill="#804b64" stroke-width="0" stroke-miterlimit="2" d="m315.0673,231.8009c2.112,0 3.968,-0.64 5.6,-1.984c0.352,-0.256 0.512,-0.608 0.576,-1.024c0.032,-0.448 -0.064,-0.8 -0.352,-1.152c-0.256,-0.32 -0.608,-0.512 -1.024,-0.544s-0.8,0.064 -1.12,0.352c-1.088,0.864 -2.304,1.28 -3.68,1.28c-1.6,0 -2.976,-0.544 -4.096,-1.696c-1.152,-1.12 -1.696,-2.496 -1.696,-4.096s0.544,-2.976 1.696,-4.128c1.12,-1.12 2.496,-1.696 4.096,-1.696c1.312,0 2.496,0.416 3.552,1.216c1.024,0.8 1.696,1.824 2.048,3.072l-5.6,0c-0.416,0 -0.8,0.16 -1.088,0.448s-0.448,0.672 -0.448,1.088s0.16,0.8 0.448,1.088s0.672,0.448 1.088,0.448l7.36,0c0.416,0 0.768,-0.16 1.056,-0.448c0.32,-0.288 0.48,-0.672 0.48,-1.088c0,-2.464 -0.896,-4.544 -2.624,-6.272s-3.808,-2.624 -6.272,-2.624s-4.544,0.896 -6.272,2.624s-2.592,3.808 -2.592,6.272s0.864,4.544 2.592,6.272s3.808,2.592 6.272,2.592z" id="svg_21"/>
    <path fill="#804b64" stroke-width="0" stroke-miterlimit="2" d="m358.4573,215.6009c-1.344,-1.344 -2.976,-2.016 -4.896,-2.016s-3.552,0.672 -4.896,2.016c-0.16,0.16 -0.288,0.32 -0.448,0.48c-0.128,-0.16 -0.288,-0.32 -0.416,-0.48c-1.376,-1.344 -3.008,-2.016 -4.928,-2.016s-3.552,0.672 -4.896,2.016c-1.344,1.376 -2.016,3.008 -2.016,4.928l0,9.6c0,0.448 0.128,0.8 0.448,1.12s0.704,0.48 1.152,0.48c0.416,0 0.8,-0.16 1.12,-0.48s0.48,-0.672 0.48,-1.12l0,-9.6c0,-1.024 0.352,-1.92 1.088,-2.656s1.6,-1.088 2.624,-1.088c1.056,0 1.92,0.352 2.656,1.088s1.088,1.632 1.088,2.656l0,9.6c0,0.448 0.16,0.8 0.48,1.12s0.672,0.48 1.12,0.48s0.832,-0.16 1.12,-0.48c0.32,-0.32 0.48,-0.672 0.48,-1.12l0,-9.6c0,-0.672 0.16,-1.312 0.512,-1.888c0.32,-0.576 0.768,-1.024 1.344,-1.344c0.576,-0.352 1.216,-0.512 1.888,-0.512c1.024,0 1.92,0.352 2.624,1.088c0.736,0.736 1.12,1.632 1.12,2.656l0,9.6c0,0.448 0.128,0.8 0.448,1.12s0.704,0.48 1.152,0.48c0.416,0 0.8,-0.16 1.12,-0.48s0.48,-0.672 0.48,-1.12l0,-9.6c0,-1.92 -0.704,-3.552 -2.048,-4.928z" id="svg_20"/>
    <path fill="#804b64" stroke-width="0" stroke-miterlimit="2" d="m389.5573,216.6609c-1.728,-1.728 -3.808,-2.592 -6.272,-2.592s-4.544,0.864 -6.272,2.592s-2.592,3.84 -2.592,6.272l0,14.72c0,0.448 0.128,0.8 0.448,1.088c0.288,0.32 0.64,0.448 1.088,0.448c0.416,0 0.768,-0.128 1.056,-0.448c0.32,-0.288 0.48,-0.64 0.48,-1.088l0,-8c1.632,1.44 3.584,2.176 5.792,2.176c2.464,0 4.544,-0.864 6.272,-2.592c1.728,-1.76 2.624,-3.84 2.624,-6.304c0,-2.432 -0.896,-4.544 -2.624,-6.272zm-6.272,12.096c-1.6,0 -2.976,-0.576 -4.096,-1.696c-1.152,-1.152 -1.696,-2.528 -1.696,-4.128c0,-1.024 0.256,-2.016 0.768,-2.912s1.216,-1.6 2.112,-2.112s1.856,-0.768 2.912,-0.768c1.6,0 2.976,0.576 4.096,1.696c1.152,1.152 1.728,2.496 1.728,4.096s-0.576,2.976 -1.728,4.128c-1.12,1.12 -2.496,1.696 -4.096,1.696z" id="svg_19"/>
    <path fill="#804b64" stroke-width="0" stroke-miterlimit="2" d="m413.3273,231.8009c2.464,0 4.544,-0.864 6.272,-2.592s2.624,-3.808 2.624,-6.272s-0.896,-4.544 -2.624,-6.272s-3.808,-2.624 -6.272,-2.624s-4.544,0.896 -6.272,2.624s-2.592,3.808 -2.592,6.272s0.864,4.544 2.592,6.272s3.808,2.592 6.272,2.592zm0,-14.688c1.6,0 2.976,0.576 4.128,1.696c1.12,1.152 1.696,2.528 1.696,4.128s-0.576,2.976 -1.696,4.096c-1.152,1.152 -2.528,1.696 -4.128,1.696s-2.976,-0.544 -4.096,-1.696c-1.152,-1.12 -1.696,-2.496 -1.696,-4.096s0.544,-2.976 1.696,-4.128c1.12,-1.12 2.496,-1.696 4.096,-1.696z" id="svg_18"/>
    <path fill="#804b64" stroke-width="0" stroke-miterlimit="2" d="m460.1873,231.7309c0.32,0 0.608,-0.096 0.896,-0.288c0.352,-0.256 0.576,-0.608 0.672,-1.056c0.064,-0.416 0,-0.832 -0.256,-1.184l-5.28,-7.616c1.12,-0.48 2.048,-1.184 2.848,-2.112c1.248,-1.44 1.856,-3.136 1.856,-5.024c0,-2.144 -0.768,-3.968 -2.272,-5.504c-1.536,-1.504 -3.36,-2.272 -5.504,-2.272l-6.24,0c-0.448,0 -0.8,0.16 -1.12,0.48s-0.48,0.672 -0.48,1.12l0,21.83c0,0.448 0.16,0.832 0.48,1.12c0.32,0.32 0.672,0.48 1.12,0.48s0.832,-0.16 1.12,-0.48c0.32,-0.288 0.48,-0.672 0.48,-1.12l0,-20.224l4.64,0c1.248,0 2.336,0.448 3.232,1.344s1.344,1.952 1.344,3.232c0,1.12 -0.384,2.112 -1.088,2.944s-1.6,1.344 -2.656,1.536l-0.576,0.064c-0.608,0.064 -1.056,0.384 -1.28,0.928c-0.288,0.544 -0.224,1.088 0.128,1.568l6.624,9.536c0.288,0.448 0.736,0.704 1.312,0.704l0,-0.006z" id="svg_17"/>
    <path fill="#804b64" stroke-width="0" stroke-miterlimit="2" d="m481.1973,231.8009c2.112,0 3.968,-0.64 5.6,-1.984c0.352,-0.256 0.512,-0.608 0.576,-1.024c0.032,-0.448 -0.064,-0.8 -0.352,-1.152c-0.256,-0.32 -0.608,-0.512 -1.024,-0.544s-0.8,0.064 -1.12,0.352c-1.088,0.864 -2.304,1.28 -3.68,1.28c-1.6,0 -2.976,-0.544 -4.096,-1.696c-1.152,-1.12 -1.696,-2.496 -1.696,-4.096s0.544,-2.976 1.696,-4.128c1.12,-1.12 2.496,-1.696 4.096,-1.696c1.312,0 2.496,0.416 3.552,1.216c1.024,0.8 1.696,1.824 2.048,3.072l-5.6,0c-0.416,0 -0.8,0.16 -1.088,0.448s-0.448,0.672 -0.448,1.088s0.16,0.8 0.448,1.088s0.672,0.448 1.088,0.448l7.36,0c0.416,0 0.768,-0.16 1.056,-0.448c0.32,-0.288 0.48,-0.672 0.48,-1.088c0,-2.464 -0.896,-4.544 -2.624,-6.272s-3.808,-2.624 -6.272,-2.624s-4.544,0.896 -6.272,2.624s-2.592,3.808 -2.592,6.272s0.864,4.544 2.592,6.272s3.808,2.592 6.272,2.592z" id="svg_16"/>
    <path fill="#804b64" stroke-width="0" stroke-miterlimit="2" d="m515.5673,216.6609c-1.728,-1.728 -3.808,-2.624 -6.272,-2.624c-2.432,0 -4.544,0.896 -6.272,2.624s-2.592,3.808 -2.592,6.272s0.864,4.544 2.592,6.272s3.84,2.592 6.272,2.592c2.208,0 4.16,-0.704 5.824,-2.144l0,0.608c0,0.448 0.128,0.8 0.448,1.088c0.288,0.32 0.64,0.448 1.088,0.448c0.416,0 0.768,-0.128 1.088,-0.448c0.288,-0.288 0.448,-0.64 0.448,-1.088l0,-7.328c0,-2.464 -0.864,-4.544 -2.624,-6.272zm-6.272,12.064c-1.6,0 -2.976,-0.544 -4.096,-1.696c-1.152,-1.12 -1.696,-2.496 -1.696,-4.096s0.544,-2.976 1.696,-4.096c1.12,-1.152 2.496,-1.728 4.096,-1.728s2.976,0.576 4.096,1.728c1.152,1.12 1.728,2.496 1.728,4.096s-0.576,2.976 -1.728,4.096c-1.12,1.152 -2.496,1.696 -4.096,1.696z" id="svg_15"/>
    <path fill="#804b64" stroke-width="0" stroke-miterlimit="2" d="m531.3573,207.1209c-0.32,0.32 -0.448,0.704 -0.448,1.152l0,17.472c0,1.152 0.192,2.176 0.608,3.072c0.384,0.896 0.96,1.6 1.696,2.112s1.568,0.736 2.496,0.736l0.064,0c0.64,0 1.152,-0.128 1.568,-0.448c0.384,-0.288 0.608,-0.672 0.608,-1.152c0,-0.448 -0.16,-0.832 -0.416,-1.152c-0.256,-0.288 -0.608,-0.448 -1.024,-0.448l-0.8,0c-0.48,0 -0.864,-0.256 -1.152,-0.768c-0.32,-0.512 -0.448,-1.152 -0.448,-1.952l0,-17.472c0,-0.448 -0.16,-0.832 -0.448,-1.152c-0.32,-0.288 -0.704,-0.448 -1.152,-0.448c-0.48,0 -0.864,0.16 -1.152,0.448z" id="svg_14"/>
    <path fill="#804b64" stroke-width="0" stroke-miterlimit="2" d="m549.4173,207.1609c-0.32,0.32 -0.448,0.736 -0.448,1.184l0,15.776c0,0.448 0.16,0.832 0.48,1.152s0.704,0.48 1.152,0.48c0.416,0 0.8,-0.16 1.12,-0.48s0.512,-0.704 0.512,-1.152l0,-15.78c0,-0.448 -0.16,-0.864 -0.48,-1.184s-0.704,-0.48 -1.152,-0.48c-0.48,0 -0.864,0.16 -1.184,0.48l0,0.004zm2.72,20.736c-0.448,-0.448 -0.96,-0.672 -1.536,-0.672c-0.608,0 -1.12,0.224 -1.568,0.672s-0.64,0.96 -0.64,1.568c0,0.64 0.192,1.152 0.64,1.568c0.448,0.448 0.96,0.64 1.568,0.64c0.576,0 1.088,-0.192 1.536,-0.64c0.448,-0.416 0.672,-0.928 0.672,-1.568c0,-0.608 -0.224,-1.12 -0.672,-1.568z" id="svg_13"/>
    <path fill="#172b54" stroke-width="0" stroke-miterlimit="2" d="m144.3673,20.3809l0,80.05l6.2424,0l0,-80.05l30.845,0l0,-5.6304l-67.932,0l0,5.6304l30.8446,0z" id="svg_12"/>
    <path fill="#172b54" stroke-width="0" stroke-miterlimit="2" d="m241.9773,70.4409c6.3648,-1.836 11.383,-5.0184 14.81,-9.6696c3.4272,-4.6512 5.2632,-10.282 5.2632,-17.136c0,-8.9352 -3.06,-16.034 -9.18,-21.175c-6.12,-5.1408 -14.566,-7.7112 -25.337,-7.7112l-30.722,0l0,5.6304l30.722,0c9.0576,0 16.034,2.0808 20.93,6.12c4.7736,4.0392 7.2216,9.792 7.2216,17.136c0,7.4664 -2.448,13.219 -7.2216,17.258c-4.896,4.0392 -11.873,5.9976 -20.93,5.9976l-30.722,0l0,33.538l6.2424,0l0,-28.03l24.48,0c2.448,0 5.2632,-0.1224 8.3232,-0.612l20.441,28.642l7.0992,0l-21.42,-29.9882z" id="svg_11"/>
    <path fill="#172b54" stroke-width="0" stroke-miterlimit="2" d="m316.3673,14.7509l-6.2424,0l-39.413,85.68l6.732,0l35.741,-78.826l35.863,78.826l6.732,0l-39.4126,-85.68z" id="svg_10"/>
    <path fill="#172b54" stroke-width="0" stroke-miterlimit="2" d="m452.3573,100.4309l6.12,0l-0.1224,-85.68l-5.1408,0l-38.311,66.218l-38.311,-66.218l-5.2632,0l0,85.68l6.12,0l0,-73.073l35.863,61.69l3.06,0l35.863,-61.934l0.1224,73.317z" id="svg_9"/>
    <path fill="#172b54" stroke-width="0" stroke-miterlimit="2" d="m488.2273,14.7509l0,85.68l6.2424,0l0,-85.68l-6.2424,0z" id="svg_8"/>
    <path fill="#172b54" stroke-width="0" stroke-miterlimit="2" d="m52.9173,114.6309l0,80.05l6.2424,0l0,-80.05l30.845,0l0,-5.6304l-67.932,0l0,5.6304l30.8446,0z" id="svg_7"/>
    <path fill="#172b54" stroke-width="0" stroke-miterlimit="2" d="m150.5273,164.6909c6.3648,-1.836 11.383,-5.0184 14.81,-9.6696c3.4272,-4.6512 5.2632,-10.282 5.2632,-17.136c0,-8.9352 -3.06,-16.034 -9.18,-21.175c-6.12,-5.1408 -14.566,-7.7112 -25.337,-7.7112l-30.722,0l0,5.6304l30.722,0c9.0576,0 16.034,2.0808 20.93,6.12c4.7736,4.0392 7.2216,9.792 7.2216,17.136c0,7.4664 -2.448,13.219 -7.2216,17.258c-4.896,4.0392 -11.873,5.9976 -20.93,5.9976l-30.722,0l0,33.538l6.2424,0l0,-28.03l24.48,0c2.448,0 5.2632,-0.1224 8.3232,-0.612l20.441,28.642l7.0992,0l-21.42,-29.9882z" id="svg_6"/>
    <path fill="#172b54" stroke-width="0" stroke-miterlimit="2" d="m224.9073,109.0009l-6.2424,0l-39.413,85.68l6.732,0l35.741,-78.826l35.863,78.826l6.732,0l-39.4126,-85.68z" id="svg_5"/>
    <path fill="#172b54" stroke-width="0" stroke-miterlimit="2" d="m503.8073,148.4109l-55.447,0l0,5.508l55.447,0l0,-5.508zm0,-39.413l-55.447,0l0,5.6304l55.447,0l0,-5.6304zm-55.447,80.05l0,5.6304l55.447,0l0,-5.6304l-55.447,0z" id="svg_4"/>
    <path fill="#172b54" stroke-width="0" stroke-miterlimit="2" d="m530.3573,109.0009l0,85.68l55.57,0l0,-5.6304l-49.327,0l0,-80.05l-6.243,0.0004z" id="svg_3"/>
    <path d="m428.2773,110.6009c-0.6895,-0.009 -1.3324,-0.007 -1.4291,0.004c-0.0963,0.0105 -0.45733,0.0431 -0.80233,0.0722c-0.3445,0.0291 -1.1007,0.12035 -1.6799,0.20259c-0.57918,0.0827 -1.7185,0.28432 -2.5323,0.4478c-0.81335,0.16347 -2.1562,0.46584 -2.9836,0.67144c-0.82739,0.2056 -1.8313,0.46435 -2.2315,0.57517c-0.39966,0.11082 -1.043,0.33146 -1.4292,0.48991c-0.38612,0.15896 -1.4125,0.64437 -2.2816,1.0787c-0.86852,0.43476 -2.234,1.1433 -3.0338,1.5745c-0.79982,0.43175 -1.9055,1.034 -2.4571,1.3389c-0.55159,0.30538 -1.8604,1.039 -2.9084,1.6313c-1.048,0.59222 -2.8643,1.6307 -4.0367,2.3077c-1.1719,0.67696 -3.3497,1.9461 -4.839,2.8201c-1.4893,0.87404 -3.4976,2.0579 -4.4629,2.6306c-0.9653,0.57316 -2.8718,1.7089 -4.2373,2.5238c-1.3649,0.81486 -4.0392,2.4215 -5.9422,3.5703c-1.903,1.1483 -4.2157,2.5474 -5.1399,3.1085c-0.92417,0.56112 -3.1807,1.9376 -5.0145,3.0594s-3.6526,2.2344 -4.0412,2.4732l-0.70655,0.43376l-0.24621,-0.0722c-0.13539,-0.0396 -1.2727,-0.34249 -2.5278,-0.67294c-1.2546,-0.33096 -3.1501,-0.8274 -4.2122,-1.1032c-1.0615,-0.27631 -3.2168,-0.83191 -4.7889,-1.2356c-1.5721,-0.40316 -5.1033,-1.2938 -7.8477,-1.9788c-2.7439,-0.68499 -5.6539,-1.407 -6.4662,-1.6047c-0.81235,-0.19757 -2.1327,-0.517 -2.9335,-0.70955c-0.79998,-0.19391 -2.6507,-0.63313 -4.1126,-0.97856c-1.462,-0.34452 -3.696,-0.86401 -4.964,-1.1535c-1.269,-0.29041 -3.3785,-0.76391 -4.689,-1.0534c-1.3096,-0.28951 -3.1828,-0.69537 -4.1622,-0.9019c-0.97945,-0.20653 -2.5587,-0.53392 -3.5102,-0.72602c-0.9515,-0.19301 -2.6218,-0.5195 -3.7104,-0.72693c-1.0891,-0.2076 -2.8383,-0.52151 -3.8863,-0.69753c-1.048,-0.17651 -2.4581,-0.40066 -3.1341,-0.49844c-0.67546,-0.0973 -1.7135,-0.23317 -2.3067,-0.30087c-0.59272,-0.0677 -1.3941,-0.15294 -1.7802,-0.18905c-0.39765,-0.0366 -1.3214,-0.0637 -2.1312,-0.0622l-1.4291,0.003l-0.39665,0.10982c-0.21864,0.0607 -0.49243,0.16548 -0.60876,0.23417c-0.11634,0.0682 -0.31492,0.2387 -0.44078,0.3786c-0.12587,0.14041 -0.28432,0.37208 -0.35202,0.5155c-0.0677,0.14291 -0.15896,0.43426 -0.20308,0.64687c-0.0436,0.21262 -0.0797,0.57818 -0.0797,0.81286c0,0.23418 0.0256,0.59773 0.0567,0.80785l0.0567,0.3811l15.469,16.783c8.5082,9.23 15.544,16.862 15.637,16.958l0.16799,0.17601l-25.057,15.419l-25.056,15.42l18.789,0.0125l18.789,0.0125l54.472,-33.152l54.472,-33.152l1.2536,-1.2607c0.6895,-0.69351 1.6086,-1.6508 2.0424,-2.1277c0.43425,-0.47638 1.0997,-1.2291 1.4793,-1.6724c0.3796,-0.44329 0.99037,-1.1814 1.3569,-1.6407c0.36656,-0.45883 0.95673,-1.2406 1.3108,-1.737c0.35453,-0.49644 0.83542,-1.207 1.0691,-1.5796c0.23368,-0.37258 0.56613,-0.93626 0.73813,-1.2531c0.17251,-0.31692 0.41572,-0.80233 0.54057,-1.0781c0.12486,-0.2763 0.31392,-0.75719 0.41972,-1.0696c0.10581,-0.31191 0.23017,-0.76321 0.2758,-1.0029c0.0456,-0.23919 0.0842,-0.66092 0.0852,-0.93671c0.002,-0.2758 -0.0276,-0.62581 -0.0642,-0.77725c-0.0366,-0.15194 -0.12035,-0.39866 -0.18654,-0.54909c-0.0656,-0.15044 -0.21211,-0.39364 -0.32544,-0.54007c-0.11282,-0.14642 -0.33998,-0.36756 -0.50496,-0.49142c-0.16448,-0.12386 -0.46485,-0.30388 -0.66744,-0.39966c-0.20309,-0.0963 -0.56012,-0.23067 -0.7938,-0.29836c-0.23367,-0.0677 -0.6579,-0.15996 -0.94275,-0.2056c-0.35002,-0.0557 -0.92318,-0.0872 -1.7711,-0.0978l-0.0031,0.0025zm-162.52,65.242c-0.19306,-0.008 -0.64437,0.002 -1.0029,0.0241c-0.35854,0.0216 -0.82289,0.0837 -1.032,0.1379c-0.2091,0.0542 -0.49142,0.14994 -0.62681,0.21263c-0.1359,0.0632 -0.37509,0.2447 -0.53205,0.40367c-0.19958,0.20207 -0.35352,0.42874 -0.51299,0.75468c-0.12587,0.25624 -0.28383,0.66192 -0.35202,0.90161c-0.0677,0.2397 -0.15946,0.67947 -0.20409,0.97783c-0.0441,0.29837 -0.0923,0.83543 -0.10681,1.1939l-0.0266,0.65189l6.0506,5.7918c3.3276,3.1852 6.0771,5.7898 6.1097,5.7867c0.0326,-0.003 3.7147,-2.5845 8.1823,-5.7377c4.468,-3.1531 8.1331,-5.7406 8.1446,-5.7497c0.0115,-0.008 0.009,-0.0276 -0.005,-0.0421c-0.014,-0.0141 -0.32795,-0.11734 -0.69753,-0.22866c-0.36956,-0.11183 -1.4051,-0.4142 -2.3016,-0.67245c-0.8961,-0.25775 -2.2049,-0.62681 -2.9084,-0.81987c-0.70304,-0.19306 -1.8935,-0.51148 -2.6452,-0.70756c-0.75167,-0.19656 -2.0489,-0.52402 -2.8834,-0.72811c-0.83441,-0.20409 -2.081,-0.49543 -2.7705,-0.64787c-0.68949,-0.15245 -1.75,-0.3776 -2.3568,-0.50045c-0.60676,-0.12286 -1.577,-0.30389 -2.1562,-0.40217c-0.57918,-0.0983 -1.2838,-0.21262 -1.5651,-0.25474c-0.28181,-0.0421 -0.90613,-0.12135 -1.3876,-0.17651c-0.4814,-0.0547 -1.1423,-0.11182 -1.4687,-0.12637c-0.32645,-0.0145 -0.75117,-0.0336 -0.94419,-0.0427l-0.00071,0.00025z" fill="#804b64" stroke-width="0.90189" id="svg_2"/>
   </g>
  </g>
 </g>
</svg>